<svg width="30" height="30" viewBox="0 0 30 30" fill="none" xmlns="http://www.w3.org/2000/svg">
<rect width="30" height="30" rx="15" fill="black"/>
<path d="M18.85 10.6H18.3V10.05C18.3 9.72 18.08 9.5 17.75 9.5C17.42 9.5 17.2 9.72 17.2 10.05V10.6H12.8V10.05C12.8 9.72 12.58 9.5 12.25 9.5C11.92 9.5 11.7 9.72 11.7 10.05V10.6H11.15C10.215 10.6 9.5 11.315 9.5 12.25V12.8H20.5V12.25C20.5 11.315 19.785 10.6 18.85 10.6ZM9.5 18.85C9.5 19.785 10.215 20.5 11.15 20.5H18.85C19.785 20.5 20.5 19.785 20.5 18.85V13.9H9.5V18.85ZM17.75 15C18.08 15 18.3 15.22 18.3 15.55C18.3 15.88 18.08 16.1 17.75 16.1C17.42 16.1 17.2 15.88 17.2 15.55C17.2 15.22 17.42 15 17.75 15ZM17.75 17.2C18.08 17.2 18.3 17.42 18.3 17.75C18.3 18.08 18.08 18.3 17.75 18.3C17.42 18.3 17.2 18.08 17.2 17.75C17.2 17.42 17.42 17.2 17.75 17.2ZM15 15C15.33 15 15.55 15.22 15.55 15.55C15.55 15.88 15.33 16.1 15 16.1C14.67 16.1 14.45 15.88 14.45 15.55C14.45 15.22 14.67 15 15 15ZM15 17.2C15.33 17.2 15.55 17.42 15.55 17.75C15.55 18.08 15.33 18.3 15 18.3C14.67 18.3 14.45 18.08 14.45 17.75C14.45 17.42 14.67 17.2 15 17.2ZM12.25 15C12.58 15 12.8 15.22 12.8 15.55C12.8 15.88 12.58 16.1 12.25 16.1C11.92 16.1 11.7 15.88 11.7 15.55C11.7 15.22 11.92 15 12.25 15ZM12.25 17.2C12.58 17.2 12.8 17.42 12.8 17.75C12.8 18.08 12.58 18.3 12.25 18.3C11.92 18.3 11.7 18.08 11.7 17.75C11.7 17.42 11.92 17.2 12.25 17.2Z" fill="white"/>
</svg>
