<svg width="60" height="60" viewBox="0 0 60 60" fill="none" xmlns="http://www.w3.org/2000/svg">
<rect width="60" height="60" rx="30" fill="url(#paint0_linear_249_728)"/>
<path d="M27.525 18.4502C26.8686 18.4502 26.2391 18.711 25.7749 19.1751C25.3108 19.6393 25.05 20.2688 25.05 20.9252V25.0518H20.925C20.2686 25.0518 19.6391 25.3126 19.1749 25.7768C18.7108 26.2409 18.45 26.8704 18.45 27.5268V32.4768C18.45 33.1333 18.7108 33.7628 19.1749 34.2269C19.6391 34.6911 20.2686 34.9518 20.925 34.9518H25.05V39.0768C25.05 39.7333 25.3108 40.3628 25.7749 40.8269C26.2391 41.2911 26.8686 41.5518 27.525 41.5518H32.475C33.1314 41.5518 33.7609 41.2911 34.2251 40.8269C34.6893 40.3628 34.95 39.7333 34.95 39.0768V34.9518H39.075C39.7314 34.9518 40.3609 34.6911 40.8251 34.2269C41.2893 33.7628 41.55 33.1333 41.55 32.4768V27.5268C41.55 26.8704 41.2893 26.2409 40.8251 25.7768C40.3609 25.3126 39.7314 25.0518 39.075 25.0518H34.95V20.9252C34.95 20.2688 34.6893 19.6393 34.2251 19.1751C33.7609 18.711 33.1314 18.4502 32.475 18.4502H27.525Z" fill="white"/>
<defs>
<linearGradient id="paint0_linear_249_728" x1="30" y1="0" x2="30" y2="60" gradientUnits="userSpaceOnUse">
<stop stop-color="#FE7F30"/>
<stop offset="1" stop-color="#FFB703"/>
</linearGradient>
</defs>
</svg>
