<svg width="60" height="60" viewBox="0 0 60 60" fill="none" xmlns="http://www.w3.org/2000/svg">
<rect width="60" height="60" rx="30" fill="url(#paint0_linear_249_717)"/>
<path d="M33.905 35.8575C38.0575 36.6413 41 38.6488 41 41V43.75H19V41C19 38.6488 21.9425 36.6413 26.095 35.8575L30 42.375L33.905 35.8575ZM24.5 24.5H35.5V27.25C35.5 28.7087 34.9205 30.1077 33.8891 31.1391C32.8576 32.1706 31.4587 32.75 30 32.75C28.5413 32.75 27.1424 32.1706 26.1109 31.1391C25.0795 30.1077 24.5 28.7087 24.5 27.25V24.5ZM24.5 23.125L25.0637 17.4875C25.098 17.1472 25.2578 16.8318 25.512 16.603C25.7663 16.3741 26.0967 16.2483 26.4387 16.25H33.575C34.2763 16.25 34.8675 16.7863 34.9363 17.4875L35.5 23.125H24.5ZM30 17.625H28.625V19H27.25V20.375H28.625V21.75H30V20.375H31.375V19H30V17.625Z" fill="white"/>
<defs>
<linearGradient id="paint0_linear_249_717" x1="30" y1="0" x2="30" y2="60" gradientUnits="userSpaceOnUse">
<stop stop-color="#FE7F30"/>
<stop offset="1" stop-color="#FFB703"/>
</linearGradient>
</defs>
</svg>
