<svg width="18" height="18" viewBox="0 0 18 18" fill="none" xmlns="http://www.w3.org/2000/svg">
<path d="M12.4281 13.7902C10.8801 14.9919 8.93226 15.5585 6.98121 15.3745C5.03016 15.1906 3.22253 14.2701 1.92625 12.8002C0.629976 11.3304 -0.0574976 9.4218 0.00376963 7.46292C0.0650369 5.50404 0.870439 3.64213 2.25603 2.2562C3.64187 0.870502 5.50364 0.0650416 7.46238 0.0037699C9.42112 -0.0575018 11.3296 0.630021 12.7993 1.92639C14.269 3.22276 15.1895 5.03053 15.3734 6.98172C15.5573 8.9329 14.9908 10.8808 13.7892 12.429L17.6927 16.3328C17.8194 16.4505 17.9121 16.6002 17.9609 16.7662C18.0097 16.9322 18.0129 17.1082 17.97 17.2758C17.9272 17.4434 17.8399 17.5964 17.7174 17.7186C17.5949 17.8407 17.4418 17.9276 17.2741 17.97C17.1067 18.0128 16.9308 18.0097 16.765 17.9612C16.5992 17.9126 16.4495 17.8203 16.3316 17.6939L12.4281 13.7902ZM13.481 7.70345C13.4925 6.93761 13.3515 6.17713 13.0663 5.46627C12.7812 4.75541 12.3575 4.10835 11.82 3.56274C11.2825 3.01712 10.6419 2.58384 9.93541 2.28809C9.22893 1.99235 8.4707 1.84005 7.70483 1.84005C6.93895 1.84005 6.18072 1.99235 5.47424 2.28809C4.76776 2.58384 4.12713 3.01712 3.58963 3.56274C3.05213 4.10835 2.62847 4.75541 2.34331 5.46627C2.05816 6.17713 1.91719 6.93761 1.9286 7.70345C1.95122 9.2206 2.56974 10.6679 3.65053 11.7328C4.73132 12.7977 6.18762 13.3946 7.70483 13.3946C9.22203 13.3946 10.6783 12.7977 11.7591 11.7328C12.8399 10.6679 13.4584 9.2206 13.481 7.70345Z" fill="#0C2647"/>
</svg>
