<svg width="38" height="38" viewBox="0 0 38 38" fill="none" xmlns="http://www.w3.org/2000/svg">
<path d="M2.37501 19C2.37501 9.81825 9.81826 2.375 19 2.375C28.1818 2.375 35.625 9.81825 35.625 19C35.625 28.1817 28.1818 35.625 19 35.625C16.188 35.625 13.5351 34.9256 11.21 33.6906L4.64551 35.5573C4.34042 35.6438 4.01777 35.6473 3.71089 35.5674C3.40401 35.4875 3.12403 35.3271 2.89986 35.1028C2.67568 34.8785 2.51545 34.5984 2.43571 34.2915C2.35597 33.9846 2.35962 33.6619 2.44626 33.3569L4.31301 26.7936C3.03709 24.3942 2.3715 21.7175 2.37501 19ZM11.875 15.4375C11.875 15.7524 12.0001 16.0545 12.2228 16.2772C12.4455 16.4999 12.7476 16.625 13.0625 16.625H24.9375C25.2525 16.625 25.5545 16.4999 25.7772 16.2772C25.9999 16.0545 26.125 15.7524 26.125 15.4375C26.125 15.1226 25.9999 14.8205 25.7772 14.5978C25.5545 14.3751 25.2525 14.25 24.9375 14.25H13.0625C12.7476 14.25 12.4455 14.3751 12.2228 14.5978C12.0001 14.8205 11.875 15.1226 11.875 15.4375ZM13.0625 21.375C12.7476 21.375 12.4455 21.5001 12.2228 21.7228C12.0001 21.9455 11.875 22.2476 11.875 22.5625C11.875 22.8774 12.0001 23.1795 12.2228 23.4022C12.4455 23.6249 12.7476 23.75 13.0625 23.75H20.1875C20.5025 23.75 20.8045 23.6249 21.0272 23.4022C21.2499 23.1795 21.375 22.8774 21.375 22.5625C21.375 22.2476 21.2499 21.9455 21.0272 21.7228C20.8045 21.5001 20.5025 21.375 20.1875 21.375H13.0625Z" fill="white"/>
</svg>
