<svg width="38" height="38" viewBox="0 0 38 38" fill="none" xmlns="http://www.w3.org/2000/svg">
<path d="M19 18.2087C17.9502 18.2087 16.9434 17.7916 16.2011 17.0493C15.4587 16.307 15.0417 15.3001 15.0417 14.2503C15.0417 13.2005 15.4587 12.1937 16.2011 11.4514C16.9434 10.709 17.9502 10.292 19 10.292C20.0498 10.292 21.0567 10.709 21.799 11.4514C22.5413 12.1937 22.9584 13.2005 22.9584 14.2503C22.9584 14.7701 22.856 15.2849 22.657 15.7651C22.4581 16.2454 22.1665 16.6817 21.799 17.0493C21.4314 17.4169 20.9951 17.7084 20.5148 17.9073C20.0346 18.1063 19.5198 18.2087 19 18.2087ZM19 3.16699C16.0605 3.16699 13.2414 4.3347 11.1629 6.41322C9.08439 8.49175 7.91669 11.3108 7.91669 14.2503C7.91669 22.5628 19 34.8337 19 34.8337C19 34.8337 30.0834 22.5628 30.0834 14.2503C30.0834 11.3108 28.9156 8.49175 26.8371 6.41322C24.7586 4.3347 21.9395 3.16699 19 3.16699Z" fill="white"/>
</svg>
