<svg width="34" height="34" viewBox="0 0 34 34" fill="none" xmlns="http://www.w3.org/2000/svg">
<path d="M29.3894 27.2321C31.0948 25.1802 32.281 22.7477 32.8475 20.1405C33.414 17.5333 33.3442 14.828 32.644 12.2534C31.9438 9.67887 30.6339 7.31083 28.825 5.34961C27.0161 3.38839 24.7614 1.8917 22.2517 0.986149C19.742 0.0805972 17.0511 -0.207176 14.4067 0.147174C11.7623 0.501524 9.2421 1.48757 7.05935 3.0219C4.87661 4.55624 3.09551 6.59371 1.86674 8.96198C0.63797 11.3302 -0.00233058 13.9596 6.37408e-06 16.6277C0.00100465 20.5063 1.36779 24.2606 3.86057 27.2321L3.83682 27.2522C3.91994 27.352 4.01494 27.4375 4.10044 27.5361C4.20732 27.6584 4.32251 27.7736 4.43294 27.8923C4.76386 28.2541 5.10824 28.5985 5.46607 28.9254C5.5769 29.0236 5.68774 29.1194 5.79857 29.2128C6.17857 29.5413 6.57044 29.8509 6.97419 30.1414C7.02644 30.1771 7.07395 30.2234 7.12619 30.2602V30.2459C9.90738 32.2033 13.2253 33.2538 16.6262 33.2538C20.0271 33.2538 23.345 32.2033 26.1262 30.2459V30.2602C26.1784 30.2234 26.2248 30.1771 26.2782 30.1414C26.6819 29.8501 27.0738 29.5406 27.4538 29.2128C27.5647 29.1186 27.6755 29.0228 27.7863 28.9254C28.1434 28.5985 28.4877 28.2541 28.8194 27.8923C28.9299 27.7736 29.0439 27.6584 29.1519 27.5361C29.2363 27.4375 29.3324 27.352 29.4156 27.2511L29.3894 27.2321ZM16.625 7.12768C17.6819 7.12768 18.7151 7.44108 19.5938 8.02826C20.4726 8.61544 21.1575 9.45002 21.562 10.4265C21.9664 11.4029 22.0723 12.4774 21.8661 13.5139C21.6599 14.5505 21.1509 15.5027 20.4036 16.25C19.6563 16.9974 18.7041 17.5063 17.6675 17.7125C16.6309 17.9187 15.5565 17.8129 14.58 17.4084C13.6036 17.004 12.769 16.319 12.1818 15.4403C11.5947 14.5615 11.2813 13.5283 11.2813 12.4714C11.2813 11.0542 11.8443 9.69498 12.8464 8.69283C13.8486 7.69068 15.2078 7.12768 16.625 7.12768ZM7.13332 27.2321C7.15392 25.6728 7.78757 24.1844 8.89718 23.0888C10.0068 21.9932 11.5031 21.3785 13.0625 21.3777H20.1875C21.7469 21.3785 23.2432 21.9932 24.3528 23.0888C25.4624 24.1844 26.0961 25.6728 26.1167 27.2321C23.5123 29.5789 20.1308 30.8778 16.625 30.8778C13.1192 30.8778 9.7377 29.5789 7.13332 27.2321Z" fill="white"/>
</svg>
