<svg width="97" height="79" viewBox="0 0 97 79" fill="none" xmlns="http://www.w3.org/2000/svg">
<g filter="url(#filter0_d_249_635)">
<path d="M7.6 35.7102C8.07135 34.8606 8.78365 34.5271 9.75805 34.5887C10.7726 34.6524 11.7935 34.6036 12.9286 34.6036C10.1364 29.0684 9.61644 23.4398 11.5737 17.6604C12.995 13.402 15.7867 9.74026 19.5084 7.25281C24.0422 4.15176 29.058 3.04728 34.4795 3.8544C39.9011 4.66152 44.2024 7.4652 47.8231 11.6176C51.987 6.80039 57.1 4.03706 63.4008 3.79705C67.65 3.60357 71.85 4.77532 75.3917 7.14235C79.6972 9.98851 82.6077 13.9094 84.0133 18.9051C85.4062 23.8582 84.9434 28.6946 82.8276 33.4842C84.1993 33.4842 85.457 33.4842 86.7125 33.4842C87.8687 33.4842 88.5873 34.0938 88.5979 35.0581C88.6085 36.0224 87.8835 36.6575 86.7442 36.6617C85.03 36.6617 83.3158 36.6787 81.6016 36.6617C81.3981 36.6484 81.1945 36.687 81.0097 36.7739C80.825 36.8608 80.6651 36.9932 80.5448 37.1587C79.6063 38.2675 78.6298 39.3429 77.6153 40.3851C75.713 42.3349 73.7853 44.255 71.8555 46.1751C71.0291 46.9992 70.1054 47.0417 69.4206 46.3259C68.7717 45.6505 68.8351 44.7223 69.6108 43.9364C71.7865 41.736 73.9657 39.5412 76.1484 37.352C76.3259 37.1715 76.4908 36.9803 76.7825 36.6723H75.8715C72.999 36.6723 70.1244 36.6469 67.2498 36.6851C66.2099 36.7 65.5822 36.2943 65.1869 35.33C64.1575 32.8109 63.0732 30.3088 62.0164 27.8025C61.9044 27.5349 61.7818 27.2736 61.6211 26.9147C61.4605 27.2524 61.3316 27.5073 61.2153 27.7643C59.0826 32.4859 56.9626 37.214 54.8003 41.9229C54.5733 42.4168 54.1987 42.8274 53.7287 43.0974C52.9297 43.5074 52.0758 43.0167 51.6784 42.0354C50.7336 39.699 49.81 37.3626 48.8757 35.0432C48.7616 34.7565 48.6305 34.4783 48.4276 34.011C48.0768 35.1919 47.7745 36.1923 47.4807 37.197C46.197 41.5866 44.914 45.9762 43.6317 50.3658C43.2597 51.6402 42.2959 52.2434 41.3616 51.6997C40.9112 51.3967 40.5701 50.9557 40.3893 50.4422C38.1932 44.3782 36.0352 38.2993 33.8687 32.2226C33.3191 30.6848 32.7696 29.147 32.1608 27.4499C31.9938 27.7791 31.8839 27.9661 31.8015 28.1657C30.6939 30.8816 29.5892 33.5996 28.4873 36.3198C27.98 37.5666 27.6418 37.7853 26.2848 37.7874H19.5211C19.7029 38.0168 19.8064 38.1825 19.9438 38.3163C27.5615 45.9797 35.1848 53.641 42.8137 61.3001C45.6059 64.0953 49.5246 64.0762 52.3252 61.2831C54.6503 58.9722 56.9478 56.6358 59.2665 54.3185C59.9006 53.6813 60.6129 53.5645 61.2745 53.9511C61.5738 54.1015 61.8117 54.3517 61.9474 54.659C62.0831 54.9663 62.1083 55.3115 62.0185 55.6354C61.9287 55.9882 61.7496 56.3116 61.4985 56.5742C59.1059 59.0041 56.7407 61.4594 54.2719 63.815C50.3447 67.5553 44.5892 67.5277 40.7444 63.6981C32.5068 55.4853 24.3107 47.2329 16.1561 38.9408C15.3255 38.0912 14.573 37.6515 13.3893 37.7577C12.2057 37.8639 10.9628 37.7343 9.75171 37.7981C8.7752 37.849 8.06078 37.5453 7.60634 36.6638L7.6 35.7102ZM53.2933 37.5432C53.5216 37.0632 53.6589 36.7807 53.7879 36.4939C55.8762 31.8679 57.9603 27.2404 60.0401 22.6115C60.3677 21.8808 60.7989 21.3052 61.6486 21.3009C62.5385 21.3009 62.9781 21.8914 63.2994 22.6603C64.7134 26.0587 66.1592 29.4295 67.5711 32.8215C67.7677 33.2973 67.9939 33.5055 68.5413 33.4991C71.8893 33.4679 75.2381 33.4679 78.5876 33.4991C78.791 33.5187 78.9952 33.4707 79.1689 33.3625C79.3426 33.2544 79.4762 33.0919 79.5493 32.9001C81.2106 29.6886 81.9546 26.2902 81.5086 22.6879C80.6843 16.0228 77.2242 11.1652 71.1242 8.4826C64.9946 5.78724 59.0509 6.53914 53.6399 10.5131C51.9955 11.7238 50.6237 13.3105 49.1336 14.7314C48.2099 15.6107 47.4215 15.632 46.5169 14.7442C45.6122 13.8563 44.771 12.9749 43.8832 12.1061C39.4636 7.77743 34.2005 6.06973 28.1068 7.08713C15.8814 9.12404 9.55726 23.6373 16.3147 34.0874C16.4155 34.2669 16.5667 34.4126 16.7493 34.5063C16.932 34.5999 17.1381 34.6375 17.3419 34.6142C19.8466 34.5929 22.3534 34.576 24.856 34.6142C25.545 34.6291 25.8558 34.423 26.1115 33.7646C27.5911 30.0051 29.1446 26.2669 30.6538 22.5074C30.9497 21.7682 31.4189 21.2776 32.2221 21.2776C33.0676 21.2776 33.5664 21.8001 33.8116 22.5838C33.8349 22.6603 33.8581 22.7368 33.8835 22.8111C36.4072 29.8826 38.9316 36.9527 41.4567 44.0214C41.5624 44.3209 41.6808 44.6161 41.8562 45.0834C42.3973 43.2313 42.8792 41.583 43.3633 39.9348C44.4412 36.2532 45.5199 32.5716 46.5993 28.89C46.8783 27.9448 47.4131 27.4563 48.174 27.469C49.0194 27.4839 49.5183 27.9809 49.7909 28.7434C49.9051 29.0684 50.0404 29.3806 50.1672 29.7035C51.186 32.2863 52.1984 34.8287 53.2933 37.5432Z" fill="url(#paint0_linear_249_635)"/>
</g>
<g filter="url(#filter1_d_249_635)">
<path d="M65.4914 51.8314C65.0782 51.8258 64.6837 51.6572 64.3931 51.362C64.1025 51.0668 63.939 50.6685 63.9379 50.2533C63.9399 50.0411 63.9845 49.8316 64.0691 49.6372C64.1536 49.4428 64.2763 49.2676 64.4299 49.122C64.5835 48.9765 64.7647 48.8635 64.9627 48.79C65.1607 48.7165 65.3715 48.6839 65.5823 48.6942C65.7868 48.7 65.9882 48.7463 66.1748 48.8306C66.3614 48.9149 66.5295 49.0354 66.6696 49.1852C66.8097 49.3351 66.9189 49.5113 66.9909 49.7037C67.063 49.8961 67.0964 50.1009 67.0894 50.3064C67.0772 50.721 66.9024 51.114 66.6031 51.3997C66.3037 51.6854 65.9042 51.8405 65.4914 51.8314Z" fill="url(#paint1_linear_249_635)"/>
</g>
<defs>
<filter id="filter0_d_249_635" x="-1.43051e-06" y="-0.00039053" width="96.198" height="78.1961" filterUnits="userSpaceOnUse" color-interpolation-filters="sRGB">
<feFlood flood-opacity="0" result="BackgroundImageFix"/>
<feColorMatrix in="SourceAlpha" type="matrix" values="0 0 0 0 0 0 0 0 0 0 0 0 0 0 0 0 0 0 127 0" result="hardAlpha"/>
<feOffset dy="4"/>
<feGaussianBlur stdDeviation="3.8"/>
<feComposite in2="hardAlpha" operator="out"/>
<feColorMatrix type="matrix" values="0 0 0 0 0.370771 0 0 0 0 0.616871 0 0 0 0 0.714167 0 0 0 0.25 0"/>
<feBlend mode="normal" in2="BackgroundImageFix" result="effect1_dropShadow_249_635"/>
<feBlend mode="normal" in="SourceGraphic" in2="effect1_dropShadow_249_635" result="shape"/>
</filter>
<filter id="filter1_d_249_635" x="56.3379" y="45.0924" width="18.3524" height="18.3396" filterUnits="userSpaceOnUse" color-interpolation-filters="sRGB">
<feFlood flood-opacity="0" result="BackgroundImageFix"/>
<feColorMatrix in="SourceAlpha" type="matrix" values="0 0 0 0 0 0 0 0 0 0 0 0 0 0 0 0 0 0 127 0" result="hardAlpha"/>
<feOffset dy="4"/>
<feGaussianBlur stdDeviation="3.8"/>
<feComposite in2="hardAlpha" operator="out"/>
<feColorMatrix type="matrix" values="0 0 0 0 0.370771 0 0 0 0 0.616871 0 0 0 0 0.714167 0 0 0 0.25 0"/>
<feBlend mode="normal" in2="BackgroundImageFix" result="effect1_dropShadow_249_635"/>
<feBlend mode="normal" in="SourceGraphic" in2="effect1_dropShadow_249_635" result="shape"/>
</filter>
<linearGradient id="paint0_linear_249_635" x1="48.099" y1="3.59961" x2="48.099" y2="66.5955" gradientUnits="userSpaceOnUse">
<stop stop-color="#FE7F30"/>
<stop offset="1" stop-color="#FFB703"/>
</linearGradient>
<linearGradient id="paint1_linear_249_635" x1="65.5141" y1="48.6924" x2="65.5141" y2="51.8318" gradientUnits="userSpaceOnUse">
<stop stop-color="#FE7F30"/>
<stop offset="1" stop-color="#FFB703"/>
</linearGradient>
</defs>
</svg>
