<svg width="97" height="97" viewBox="0 0 97 97" fill="none" xmlns="http://www.w3.org/2000/svg">
<g filter="url(#filter0_d_249_575)">
<path d="M88.6 78.5829V80.0052C88.1781 81.3746 87.1234 82.2707 86.1573 83.2259C84.2926 85.0667 82.2002 85.0582 80.3397 83.1964C77.0406 79.8981 73.7451 76.5964 70.453 73.2911C70.2618 73.0626 70.0917 72.8171 69.9447 72.5578C66.2602 75.1592 62.0203 76.8627 57.5627 77.5326C57.5627 78.5111 57.5627 79.405 57.5627 80.299C57.5352 82.8984 55.833 84.5912 53.23 84.5912C44.4269 84.5912 35.6237 84.5912 26.8206 84.5912C24.1438 84.5912 22.469 82.928 22.4627 80.2673C22.4627 76.9197 22.4627 73.5729 22.4627 70.2268C22.499 67.5943 21.6147 65.0321 19.963 62.9844C17.263 59.5777 14.5525 56.1773 11.9116 52.7241C10.7957 51.2681 9.69039 49.7655 8.86562 48.1382C8.21594 46.8533 8.005 45.3465 7.6 43.939V26.6963C7.65883 26.5516 7.70609 26.4025 7.74133 26.2504C8.07602 23.9915 9.13209 21.9021 10.7514 20.295C12.4769 18.5494 14.5884 17.5603 17.0627 17.1672V16.2796C17.0627 14.646 17.031 13.0124 17.0901 11.3809C17.2082 8.05453 20.0432 5.18673 23.3676 4.97751C25.4327 4.84648 27.1771 5.57981 28.66 6.98095C30.1935 5.04091 30.6766 4.47453 33.5453 3.59961H35.602C37.3464 4.06032 38.9116 4.81689 39.9747 6.34695C40.3248 6.85204 40.6075 7.40362 40.9302 7.95731C42.7443 6.50122 44.763 5.93062 47.0179 6.50545C49.2728 7.08028 50.7747 8.52157 51.6796 10.6687C51.8399 10.5673 51.9496 10.5018 52.053 10.4278C56.3793 7.30006 62.1358 9.66489 62.8277 14.9757C63.1251 17.2602 62.9542 19.606 62.9437 21.9244C62.9437 22.5584 63.1082 22.8627 63.741 23.1078C79.0234 29.059 86.0835 46.4729 79.2281 61.3149C78.5151 62.8597 77.6038 64.3137 76.6715 66.0213C76.8973 66.1383 77.1096 66.2801 77.3043 66.4439C80.4831 69.6034 83.6324 72.7839 86.8302 75.9328C87.6023 76.7042 88.2815 77.5136 88.6 78.5829ZM54.85 77.8264C38.5087 78.7351 24.1818 65.0851 25.2217 47.7832C25.6921 39.9194 28.9469 33.2709 34.9248 28.1397C42.2549 21.8525 50.7684 19.9568 60.1973 21.9349C60.1973 19.6927 60.3618 17.4716 60.153 15.2843C59.9146 12.7863 57.4994 11.2457 55.1664 11.8332C53.4789 12.2558 52.3799 13.6274 52.169 15.5717C52.0593 16.5945 51.5362 17.1207 50.703 17.0721C49.9056 17.0235 49.4732 16.4762 49.4563 15.4618C49.4437 14.7242 49.4711 13.9824 49.4437 13.247C49.3614 10.8864 47.6739 9.07949 45.497 8.99496C43.3202 8.91043 41.6158 10.5271 41.3437 12.9131C41.2277 13.9127 40.7594 14.4051 39.943 14.3755C39.1267 14.3459 38.6563 13.7753 38.6373 12.8053C38.6205 11.96 38.6521 11.1146 38.6205 10.2693C38.5382 8.09468 36.6967 6.292 34.5831 6.28989C33.5176 6.30084 32.4986 6.72907 31.7441 7.48301C30.9896 8.23694 30.5595 9.25672 30.5458 10.3243C30.5331 10.823 30.569 11.3281 30.5247 11.8247C30.4929 12.1572 30.3392 12.466 30.0934 12.6916C29.8476 12.9172 29.527 13.0436 29.1937 13.0462C28.8746 13.0372 28.5685 12.9177 28.3274 12.7081C28.0863 12.4985 27.9251 12.2118 27.8711 11.8966C27.8373 11.7169 27.8521 11.5289 27.8331 11.345C27.7602 10.5263 27.4401 9.74937 26.9156 9.11741C26.3911 8.48545 25.687 8.02847 24.8969 7.80727C24.1291 7.59709 23.3162 7.62073 22.5619 7.87515C21.8075 8.12958 21.1459 8.60329 20.6613 9.23588C19.9736 10.1023 19.7521 11.0956 19.7542 12.1946C19.7697 20.8156 19.7697 29.4352 19.7542 38.0534C19.7728 38.446 19.725 38.839 19.6129 39.2157C19.3893 39.8328 18.8767 40.0927 18.227 40.0124C17.9351 39.9935 17.6597 39.8699 17.4513 39.6642C17.2429 39.4585 17.1154 39.1845 17.0922 38.8923C17.0633 38.6038 17.0556 38.3135 17.069 38.0238C17.069 32.3037 17.069 26.5836 17.069 20.8635V19.9442C16.6809 20.0308 16.3982 20.0752 16.1261 20.1555C14.4425 20.6415 12.9632 21.6649 11.9132 23.0701C10.8631 24.4754 10.2997 26.1856 10.3084 27.941C10.2831 32.6855 10.3084 37.4299 10.2958 42.1744C10.2545 44.8826 11.1672 47.5187 12.8734 49.6196C15.8898 53.4237 18.8493 57.2572 21.8805 61.0422C24.0757 63.7114 25.2405 67.0819 25.1627 70.5396C25.1247 73.6758 25.1627 76.8141 25.1627 79.9503C25.1627 81.5163 25.5508 81.8988 27.1286 81.8988H52.9094C53.095 81.8988 53.2785 81.8988 53.462 81.8988C54.2552 81.8459 54.7867 81.4148 54.8373 80.6434C54.888 79.7262 54.85 78.8069 54.85 77.8264ZM53.538 75.1297C67.8522 75.0093 79.2555 63.5423 79.1395 49.3851C79.121 46.0005 78.4349 42.6531 77.1206 39.5351C75.8063 36.4172 73.8897 33.5904 71.481 31.2173C69.0723 28.8441 66.2191 26.9715 63.0854 25.7071C59.9518 24.4427 56.5996 23.8114 53.2216 23.8496C39.0887 23.9532 27.734 35.5807 27.85 49.8437C27.966 63.7854 39.6055 75.2418 53.5316 75.1297H53.538ZM78.8357 71.7484L75.7539 74.8423C77.9287 77.0043 80.1688 79.2381 82.4174 81.4592C83.0502 82.0742 83.4721 82.0657 84.1176 81.4592C84.5753 81.0217 85.0246 80.5758 85.4591 80.1172C86.0624 79.4832 86.073 79.031 85.4591 78.4118C83.2337 76.1589 81.0062 73.9209 78.8294 71.74L78.8357 71.7484ZM72.1996 70.9496L73.6762 72.5451L76.5534 69.6752L75.0283 68.1473L72.1996 70.9496Z" fill="url(#paint0_linear_249_575)"/>
</g>
<g filter="url(#filter1_d_249_575)">
<path d="M54.8628 69.8417C54.8628 67.7284 54.9324 65.8919 54.848 64.0554C54.724 61.3593 55.2927 58.6764 56.4997 56.2635C57.5037 54.2051 58.3707 52.0834 59.3136 49.9954C59.953 48.5743 60.2782 47.0316 60.267 45.4728C60.2544 40.7284 60.2459 35.9818 60.2797 31.2374C60.2797 30.5421 60.0687 30.2209 59.4085 30.1258C59.124 30.0712 58.8455 29.9884 58.5774 29.8785C57.8054 29.5974 57.4257 28.9169 57.6366 28.209C57.679 28.0408 57.7554 27.8832 57.861 27.7458C57.9667 27.6084 58.0993 27.4942 58.2508 27.4102C58.4022 27.3263 58.5692 27.2743 58.7415 27.2575C58.9138 27.2408 59.0877 27.2597 59.2524 27.3129C60.5479 27.6643 61.8168 28.1078 63.0493 28.6401C67.3733 30.6042 70.9783 33.8704 73.3625 37.9837C75.7467 42.097 76.7913 46.8528 76.351 51.5888C75.8999 56.5847 73.8247 61.2942 70.444 64.9943C67.0633 68.6944 62.5639 71.1806 57.6366 72.0713C44.6872 74.4509 32.3705 65.427 30.7252 52.4025C29.1411 39.8556 38.0258 28.3738 50.5955 26.7402C51.4055 26.6367 52.224 26.5923 53.0403 26.5648C54.173 26.5246 54.8206 27.0128 54.848 27.8687C54.8755 28.7246 54.2384 29.217 53.112 29.2551C47.0729 29.4664 41.964 31.7636 38.0996 36.4087C33.1552 42.3514 31.8706 49.1479 34.5137 56.4072C37.1462 63.6306 42.4681 67.9609 50.0344 69.4169C51.5701 69.7044 53.1626 69.698 54.8628 69.8417ZM57.5628 69.2352C65.2156 68.8971 73.1912 59.7738 73.7037 50.8153C73.999 45.6356 72.5478 40.9756 69.3289 36.8969C67.6189 34.6951 65.4434 32.9002 62.9586 31.641V32.6554C62.9586 36.9244 62.9586 41.1933 62.9586 45.4623C62.9773 47.3908 62.5726 49.2998 61.7731 51.0542C61.0622 52.6096 60.4674 54.2242 59.6637 55.731C57.9889 58.8883 57.2379 62.202 57.5396 65.7736C57.6451 66.919 57.5628 68.0792 57.5628 69.2352Z" fill="url(#paint1_linear_249_575)"/>
</g>
<path d="M57.5605 34.0318C57.5605 34.2157 57.5711 34.3995 57.5605 34.5834C57.4951 35.4435 56.9277 36.0268 56.1725 36.0057C55.4174 35.9845 54.9069 35.4076 54.8689 34.5263C54.8563 34.1037 54.8521 33.681 54.8689 33.2583C54.8726 32.9224 55.0033 32.6004 55.2347 32.3572C55.4661 32.1141 55.7808 31.9678 56.1156 31.9481C56.4474 31.931 56.7739 32.0368 57.0329 32.2453C57.292 32.4538 57.4655 32.7504 57.5204 33.0787C57.5612 33.3912 57.581 33.7061 57.5795 34.0213L57.5605 34.0318Z" fill="url(#paint2_linear_249_575)"/>
<path d="M41.3334 56.934C41.3334 57.1453 41.3439 57.3566 41.3334 57.568C41.2827 58.3901 40.7448 58.948 40.0066 58.9501C39.6606 58.9459 39.329 58.8106 39.0786 58.5715C38.8281 58.3323 38.6773 58.007 38.6566 57.661C38.6228 57.2143 38.6228 56.7657 38.6566 56.319C38.7051 55.461 39.2894 54.8798 40.0403 54.9009C40.7912 54.9221 41.3059 55.499 41.3439 56.3803C41.3439 56.5641 41.3439 56.7501 41.3439 56.934H41.3334Z" fill="url(#paint3_linear_249_575)"/>
<path d="M49.4755 48.8248C49.4565 47.4596 49.8784 46.8171 50.7854 46.8087C51.6924 46.8002 52.1607 47.4596 52.1586 48.7952C52.1689 49.0845 52.1569 49.3742 52.1227 49.6617C52.0847 49.9921 51.926 50.2967 51.6771 50.5168C51.4282 50.7368 51.1068 50.8568 50.7749 50.8536C50.4431 50.8459 50.1262 50.7141 49.8865 50.4841C49.6469 50.2542 49.5017 49.9427 49.4797 49.611C49.4646 49.3492 49.4632 49.0867 49.4755 48.8248Z" fill="url(#paint4_linear_249_575)"/>
<path d="M41.3251 43.4446C41.3357 44.8098 40.9138 45.4354 39.992 45.4311C39.0702 45.4269 38.6336 44.7781 38.6399 43.434C38.6259 43.1196 38.6429 42.8046 38.6905 42.4936C38.7456 42.1645 38.9247 41.8693 39.1909 41.6687C39.457 41.4681 39.7898 41.3776 40.1207 41.4158C40.4402 41.4323 40.7416 41.5694 40.9643 41.7996C41.187 42.0297 41.3144 42.3358 41.3209 42.6563C41.3504 42.9078 41.3251 43.1804 41.3251 43.4446Z" fill="url(#paint5_linear_249_575)"/>
<path d="M41.3247 50.2011C41.3352 51.579 40.9239 52.1834 39.9894 52.1771C39.055 52.1707 38.6352 51.5431 38.6394 50.1821C38.6245 49.8677 38.6415 49.5526 38.6901 49.2416C38.7485 48.9149 38.9299 48.6232 39.1968 48.4266C39.4637 48.23 39.7957 48.1435 40.1244 48.185C40.4425 48.2024 40.7423 48.3394 40.964 48.5686C41.1857 48.7977 41.313 49.1022 41.3204 49.4213C41.35 49.6706 41.3247 49.939 41.3247 50.2011Z" fill="url(#paint6_linear_249_575)"/>
<path d="M46.7251 51.5368C46.7441 52.8873 46.3033 53.5466 45.4005 53.5466C44.4977 53.5466 44.0378 52.8788 44.042 51.5411C44.0318 51.2524 44.0438 50.9635 44.0779 50.6767C44.1185 50.3464 44.2798 50.0428 44.5307 49.8247C44.7815 49.6065 45.1042 49.4892 45.4363 49.4953C45.7683 49.5059 46.0843 49.6406 46.322 49.873C46.5598 50.1053 46.7021 50.4184 46.7209 50.7507C46.7371 51.0124 46.7385 51.2749 46.7251 51.5368Z" fill="url(#paint7_linear_249_575)"/>
<path d="M54.8649 40.6973C54.8649 40.5135 54.8649 40.3296 54.8649 40.1457C54.9029 39.2539 55.4133 38.7108 56.2022 38.7129C56.9468 38.7129 57.4868 39.2455 57.5501 40.0718C57.5744 40.4652 57.5744 40.8597 57.5501 41.2531C57.5079 42.1851 56.9658 42.7451 56.1516 42.7219C55.3374 42.6987 54.886 42.1597 54.8565 41.2426C54.8501 41.065 54.8649 40.8812 54.8649 40.6973Z" fill="url(#paint8_linear_249_575)"/>
<path d="M52.1582 42.1279C52.1582 42.2589 52.1582 42.3899 52.1582 42.521C52.1181 43.5015 51.576 44.1123 50.7639 44.089C49.9518 44.0658 49.4856 43.4931 49.4582 42.5294C49.4476 42.1617 49.4434 41.7919 49.4582 41.4262C49.513 40.5978 50.0488 40.0547 50.7892 40.0547C51.5296 40.0547 52.0548 40.5894 52.1392 41.4178C52.1624 41.6524 52.1392 41.8912 52.1392 42.1279H52.1582Z" fill="url(#paint9_linear_249_575)"/>
<path d="M54.8644 47.4595C54.8644 47.2757 54.8644 47.0918 54.8644 46.9079C54.9002 46.0161 55.4065 45.4709 56.1933 45.4688C56.9801 45.4666 57.5053 46.0077 57.5538 46.8953C57.5781 47.2887 57.5781 47.6832 57.5538 48.0766C57.4969 48.9494 56.9421 49.4968 56.1659 49.4799C55.3896 49.463 54.9002 48.9156 54.8644 48.0005C54.8496 47.8272 54.8644 47.6434 54.8644 47.4595Z" fill="url(#paint10_linear_249_575)"/>
<path d="M49.4545 62.3169C49.4545 60.9538 49.8764 60.3134 50.7855 60.3029C51.6946 60.2923 52.1629 60.958 52.1608 62.3634V62.6001C52.1439 63.7138 51.6335 64.3541 50.7771 64.3393C49.9207 64.3245 49.4735 63.7201 49.4566 62.6339C49.4545 62.5282 49.4566 62.4225 49.4545 62.3169Z" fill="url(#paint11_linear_249_575)"/>
<path d="M52.15 35.3479C52.1618 35.5591 52.1618 35.7707 52.15 35.9819C52.0699 36.8272 51.5573 37.3281 50.7958 37.326C50.0343 37.3239 49.5302 36.8209 49.469 35.9671C49.4444 35.5448 49.4444 35.1214 49.469 34.6991C49.5175 33.8411 50.0111 33.3318 50.7726 33.3149C51.5341 33.298 52.0657 33.803 52.15 34.6357C52.1629 34.8729 52.1629 35.1107 52.15 35.3479Z" fill="url(#paint12_linear_249_575)"/>
<path d="M46.7243 44.7931C46.7432 46.1647 46.3214 46.786 45.3975 46.786C44.4735 46.786 44.0369 46.152 44.0411 44.791C44.0305 44.5023 44.0432 44.2133 44.0791 43.9266C44.1147 43.5958 44.2753 43.2912 44.5278 43.0751C44.7804 42.859 45.1058 42.7478 45.4375 42.7643C45.7691 42.7688 46.0864 42.8999 46.3248 43.1308C46.5631 43.3617 46.7045 43.6751 46.72 44.0069C46.7352 44.2687 46.7366 44.5312 46.7243 44.7931Z" fill="url(#paint13_linear_249_575)"/>
<path d="M52.15 55.5879C52.1618 55.799 52.1618 56.0107 52.15 56.2219C52.0699 57.0672 51.5573 57.5681 50.7958 57.566C50.0343 57.5638 49.5302 57.0609 49.469 56.2071C49.4444 55.7848 49.4444 55.3614 49.469 54.9391C49.5175 54.0832 50.0111 53.5718 50.7726 53.557C51.5341 53.5422 52.0657 54.0451 52.15 54.8757C52.1629 55.1129 52.1629 55.3507 52.15 55.5879Z" fill="url(#paint14_linear_249_575)"/>
<path d="M46.7581 37.9918C46.7579 38.3063 46.7375 38.6204 46.6969 38.9323C46.6635 39.2378 46.516 39.5194 46.284 39.7205C46.052 39.9216 45.7526 40.0273 45.4461 40.0164C44.7563 40.0396 44.2521 39.7036 44.1277 39.0231C44.0348 38.4539 44.0136 37.8753 44.0644 37.3008C44.0662 37.1222 44.1046 36.9458 44.1773 36.7827C44.25 36.6196 44.3554 36.4733 44.4869 36.3528C44.6185 36.2322 44.7734 36.1401 44.9421 36.0822C45.1107 36.0242 45.2894 36.0016 45.4671 36.0158C46.1885 36.0497 46.6674 36.5526 46.7328 37.362C46.7496 37.5734 46.7328 37.7847 46.7328 37.996L46.7581 37.9918Z" fill="url(#paint15_linear_249_575)"/>
<path d="M46.7312 58.276C46.7312 58.5127 46.7502 58.7493 46.7312 58.9839C46.6573 59.7764 46.149 60.2646 45.4149 60.271C44.6809 60.2773 44.1493 59.8018 44.0691 59.003C44.027 58.5326 44.027 58.0595 44.0691 57.5891C44.1345 56.7565 44.6809 56.2493 45.4381 56.262C46.1954 56.2746 46.689 56.7903 46.7502 57.642C46.7628 57.8533 46.7502 58.0646 46.7502 58.276H46.7312Z" fill="url(#paint16_linear_249_575)"/>
<defs>
<filter id="filter0_d_249_575" x="-1.43051e-06" y="-0.00039053" width="96.2" height="96.2" filterUnits="userSpaceOnUse" color-interpolation-filters="sRGB">
<feFlood flood-opacity="0" result="BackgroundImageFix"/>
<feColorMatrix in="SourceAlpha" type="matrix" values="0 0 0 0 0 0 0 0 0 0 0 0 0 0 0 0 0 0 127 0" result="hardAlpha"/>
<feOffset dy="4"/>
<feGaussianBlur stdDeviation="3.8"/>
<feComposite in2="hardAlpha" operator="out"/>
<feColorMatrix type="matrix" values="0 0 0 0 0.370771 0 0 0 0 0.616871 0 0 0 0 0.714167 0 0 0 0.25 0"/>
<feBlend mode="normal" in2="BackgroundImageFix" result="effect1_dropShadow_249_575"/>
<feBlend mode="normal" in="SourceGraphic" in2="effect1_dropShadow_249_575" result="shape"/>
</filter>
<filter id="filter1_d_249_575" x="22.9424" y="22.9625" width="61.107" height="61.0896" filterUnits="userSpaceOnUse" color-interpolation-filters="sRGB">
<feFlood flood-opacity="0" result="BackgroundImageFix"/>
<feColorMatrix in="SourceAlpha" type="matrix" values="0 0 0 0 0 0 0 0 0 0 0 0 0 0 0 0 0 0 127 0" result="hardAlpha"/>
<feOffset dy="4"/>
<feGaussianBlur stdDeviation="3.8"/>
<feComposite in2="hardAlpha" operator="out"/>
<feColorMatrix type="matrix" values="0 0 0 0 0.370771 0 0 0 0 0.616871 0 0 0 0 0.714167 0 0 0 0.25 0"/>
<feBlend mode="normal" in2="BackgroundImageFix" result="effect1_dropShadow_249_575"/>
<feBlend mode="normal" in="SourceGraphic" in2="effect1_dropShadow_249_575" result="shape"/>
</filter>
<linearGradient id="paint0_linear_249_575" x1="48.1" y1="3.59961" x2="48.1" y2="84.5996" gradientUnits="userSpaceOnUse">
<stop stop-color="#FE7F30"/>
<stop offset="1" stop-color="#FFB703"/>
</linearGradient>
<linearGradient id="paint1_linear_249_575" x1="53.4959" y1="26.5625" x2="53.4959" y2="72.4526" gradientUnits="userSpaceOnUse">
<stop stop-color="#FE7F30"/>
<stop offset="1" stop-color="#FFB703"/>
</linearGradient>
<linearGradient id="paint2_linear_249_575" x1="56.2187" y1="31.9463" x2="56.2187" y2="36.0062" gradientUnits="userSpaceOnUse">
<stop stop-color="#FE7F30"/>
<stop offset="1" stop-color="#FFB703"/>
</linearGradient>
<linearGradient id="paint3_linear_249_575" x1="39.9876" y1="54.9004" x2="39.9876" y2="58.9501" gradientUnits="userSpaceOnUse">
<stop stop-color="#FE7F30"/>
<stop offset="1" stop-color="#FFB703"/>
</linearGradient>
<linearGradient id="paint4_linear_249_575" x1="50.8147" y1="46.8086" x2="50.8147" y2="50.8537" gradientUnits="userSpaceOnUse">
<stop stop-color="#FE7F30"/>
<stop offset="1" stop-color="#FFB703"/>
</linearGradient>
<linearGradient id="paint5_linear_249_575" x1="39.9852" y1="41.4072" x2="39.9852" y2="45.4311" gradientUnits="userSpaceOnUse">
<stop stop-color="#FE7F30"/>
<stop offset="1" stop-color="#FFB703"/>
</linearGradient>
<linearGradient id="paint6_linear_249_575" x1="39.9845" y1="48.1748" x2="39.9845" y2="52.1771" gradientUnits="userSpaceOnUse">
<stop stop-color="#FE7F30"/>
<stop offset="1" stop-color="#FFB703"/>
</linearGradient>
<linearGradient id="paint7_linear_249_575" x1="45.3863" y1="49.4951" x2="45.3863" y2="53.5466" gradientUnits="userSpaceOnUse">
<stop stop-color="#FE7F30"/>
<stop offset="1" stop-color="#FFB703"/>
</linearGradient>
<linearGradient id="paint8_linear_249_575" x1="56.2116" y1="38.7129" x2="56.2116" y2="42.7226" gradientUnits="userSpaceOnUse">
<stop stop-color="#FE7F30"/>
<stop offset="1" stop-color="#FFB703"/>
</linearGradient>
<linearGradient id="paint9_linear_249_575" x1="50.8034" y1="40.0547" x2="50.8034" y2="44.0897" gradientUnits="userSpaceOnUse">
<stop stop-color="#FE7F30"/>
<stop offset="1" stop-color="#FFB703"/>
</linearGradient>
<linearGradient id="paint10_linear_249_575" x1="56.2149" y1="45.4688" x2="56.2149" y2="49.4803" gradientUnits="userSpaceOnUse">
<stop stop-color="#FE7F30"/>
<stop offset="1" stop-color="#FFB703"/>
</linearGradient>
<linearGradient id="paint11_linear_249_575" x1="50.8077" y1="60.3027" x2="50.8077" y2="64.3396" gradientUnits="userSpaceOnUse">
<stop stop-color="#FE7F30"/>
<stop offset="1" stop-color="#FFB703"/>
</linearGradient>
<linearGradient id="paint12_linear_249_575" x1="50.8051" y1="33.3145" x2="50.8051" y2="37.326" gradientUnits="userSpaceOnUse">
<stop stop-color="#FE7F30"/>
<stop offset="1" stop-color="#FFB703"/>
</linearGradient>
<linearGradient id="paint13_linear_249_575" x1="45.385" y1="42.7627" x2="45.385" y2="46.786" gradientUnits="userSpaceOnUse">
<stop stop-color="#FE7F30"/>
<stop offset="1" stop-color="#FFB703"/>
</linearGradient>
<linearGradient id="paint14_linear_249_575" x1="50.8051" y1="53.5566" x2="50.8051" y2="57.566" gradientUnits="userSpaceOnUse">
<stop stop-color="#FE7F30"/>
<stop offset="1" stop-color="#FFB703"/>
</linearGradient>
<linearGradient id="paint15_linear_249_575" x1="45.3978" y1="36.0117" x2="45.3978" y2="40.0175" gradientUnits="userSpaceOnUse">
<stop stop-color="#FE7F30"/>
<stop offset="1" stop-color="#FFB703"/>
</linearGradient>
<linearGradient id="paint16_linear_249_575" x1="45.3966" y1="56.2617" x2="45.3966" y2="60.271" gradientUnits="userSpaceOnUse">
<stop stop-color="#FE7F30"/>
<stop offset="1" stop-color="#FFB703"/>
</linearGradient>
</defs>
</svg>
