<svg width="97" height="80" viewBox="0 0 97 80" fill="none" xmlns="http://www.w3.org/2000/svg">
<g filter="url(#filter0_d_249_642)">
<path d="M88.5958 57.102C88.1296 57.9492 87.4188 58.2499 86.4463 58.2288C84.029 58.1779 81.6095 58.2118 79.1036 58.2118V62.6787C79.1036 63.7377 79.1036 64.7967 79.1036 65.8558C79.1036 67.1139 78.5108 67.7175 77.2747 67.7217C74.271 67.7302 71.2666 67.7302 68.2614 67.7217C67.0675 67.7217 66.4579 67.1096 66.4537 65.9172C66.4537 63.3756 66.4537 60.853 66.4537 58.2118H65.5762C63.336 58.2118 61.0959 58.2118 58.8557 58.2118C57.5521 58.2118 56.9699 57.6294 56.9573 56.331C56.9573 55.0602 56.9573 53.8 56.9573 52.4381C56.1452 52.5842 55.3837 52.7113 54.637 52.8617C47.2858 54.2871 40.2784 53.1159 33.5432 50.0002C23.3064 45.2622 15.025 38.0948 8.09359 29.2754C7.91641 29.0509 7.76454 28.8073 7.60001 28.5722V27.6191C10.3063 23.8871 13.4598 20.564 16.8813 17.4801C22.1737 12.6934 27.9175 8.56748 34.5093 5.7505C36.3909 4.94777 38.3716 4.37591 40.3185 3.72991C41.0673 3.4821 41.7951 3.552 42.3098 4.25306C42.9953 5.18076 42.5207 6.33931 41.3373 6.73538C39.4389 7.37079 37.5046 7.90453 35.6673 8.67549C29.6936 11.1811 24.5277 14.9448 19.7268 19.2444C16.6694 21.9818 13.8214 24.9462 11.207 28.1126C12.2617 29.3114 13.2911 30.5356 14.3711 31.7132C19.9588 37.7348 26.1984 42.9218 33.6065 46.5754C38.4581 48.9709 43.5648 50.4556 49.0429 50.2798C51.7159 50.2022 54.371 49.8141 56.9552 49.1234C56.9552 48.5452 56.9552 47.9924 56.9552 47.4417C56.9552 46.1306 57.5373 45.546 58.8304 45.5354C61.0452 45.5354 63.2601 45.5354 65.4728 45.5354H66.4473V44.1037C66.4473 42.0428 66.4473 39.9841 66.4473 37.9233C66.4473 36.6122 67.0274 36.0276 68.3226 36.0171C71.3031 36.0171 74.2816 36.017 77.26 36.0022C77.588 36.0133 77.9091 35.9058 78.1649 35.6993C80.4852 33.2488 82.7697 30.7686 85.109 28.2481C84.7335 27.7949 84.4762 27.4729 84.2062 27.1595C78.2282 20.1869 71.4423 14.1993 63.2537 9.92936C60.6669 8.56011 57.9254 7.50837 55.0884 6.79681C54.3817 6.62313 53.8016 6.29696 53.635 5.52599C53.3671 4.28695 54.4176 3.30419 55.7296 3.70449C57.839 4.3399 59.9673 4.99225 61.9839 5.87759C70.0164 9.40621 76.8318 14.6843 82.8962 20.9558C84.9234 23.0505 86.6931 25.3888 88.5916 27.6149V28.568C88.3806 28.8645 88.1697 29.1695 87.9587 29.4597C85.4231 32.7671 82.6353 35.8716 79.6204 38.7451C79.4221 38.9378 79.1352 39.1856 79.1289 39.4122C79.0909 41.4328 79.1078 43.4555 79.1078 45.5354C81.6159 45.5354 84.0332 45.5715 86.4484 45.5185C87.423 45.4973 88.1359 45.7875 88.5958 46.6453V57.102ZM75.9395 64.515C75.9395 61.9417 75.9395 59.4614 75.9395 56.9791C75.9395 55.6172 76.507 55.0432 77.8506 55.039C80.0908 55.039 82.3288 55.039 84.569 55.039H85.3874V48.6998H84.588C82.3225 48.6998 80.057 48.6998 77.7916 48.6998C76.5491 48.6998 75.9627 48.0961 75.9522 46.8444C75.9522 45.815 75.9522 44.7835 75.9522 43.7542V39.2364H69.6241C69.6241 41.7887 69.6241 44.2922 69.6241 46.7957C69.6241 48.1046 69.0419 48.6913 67.7509 48.7019C66.2238 48.7019 64.6944 48.7019 63.1673 48.7019H60.1909V55.0433C62.7475 55.0433 65.2534 55.0433 67.7467 55.0433C69.0419 55.0433 69.6199 55.6321 69.6241 56.9389C69.6241 59.184 69.6241 61.4291 69.6241 63.6742V64.5214L75.9395 64.515Z" fill="url(#paint0_linear_249_642)"/>
</g>
<g filter="url(#filter1_d_249_642)">
<path d="M32.2758 28.0834C32.2708 24.9386 33.1955 21.8631 34.9328 19.2465C36.6701 16.6299 39.1417 14.59 42.0347 13.3851C44.9276 12.1802 48.1116 11.8646 51.1833 12.4782C54.255 13.0919 57.0762 14.6073 59.2895 16.8323C61.5028 19.0573 63.0085 21.8919 63.616 24.9769C64.2234 28.062 63.9053 31.2586 62.7018 34.162C61.4984 37.0653 59.4638 39.5446 56.8558 41.2859C54.2478 43.0271 51.1837 43.9519 48.0518 43.9431C43.8681 43.9314 39.8593 42.2561 36.9027 39.2838C33.9461 36.3115 32.2825 32.2843 32.2758 28.0834ZM35.4399 28.0495C35.427 30.5623 36.1563 33.0226 37.5357 35.1193C38.9151 37.216 40.8826 38.8551 43.1895 39.8292C45.4964 40.8034 48.0391 41.069 50.4963 40.5924C52.9535 40.1158 55.2148 38.9185 56.9945 37.1517C58.7741 35.3849 59.9921 33.128 60.4945 30.6663C60.997 28.2046 60.7613 25.6486 59.8173 23.3213C58.8733 20.9941 57.2633 19.0001 55.1909 17.5914C53.1185 16.1827 50.6767 15.4225 48.1742 15.407C44.8165 15.3901 41.5894 16.7121 39.2018 19.0825C36.8141 21.453 35.4611 24.6781 35.4399 28.0495Z" fill="url(#paint1_linear_249_642)"/>
</g>
<path d="M48.0576 2.73869C48.3704 2.73153 48.6782 2.81814 48.9417 2.98744C49.2052 3.15674 49.4124 3.40106 49.537 3.6892C49.6615 3.97734 49.6977 4.29621 49.641 4.60511C49.5842 4.914 49.437 5.19889 49.2182 5.42339C48.9994 5.6479 48.719 5.80184 48.4127 5.86554C48.1063 5.92924 47.788 5.89982 47.4985 5.78104C47.2089 5.66225 46.9611 5.45949 46.7868 5.19865C46.6125 4.93781 46.5196 4.63073 46.5199 4.31662C46.5256 3.90571 46.6884 3.51274 46.9747 3.21902C47.2609 2.9253 47.6486 2.75333 48.0576 2.73869Z" fill="url(#paint2_linear_249_642)"/>
<g filter="url(#filter2_d_249_642)">
<path d="M48.168 21.7504C49.4151 21.7676 50.6292 22.1553 51.657 22.8646C52.6849 23.5738 53.4806 24.5729 53.9435 25.7357C54.4065 26.8986 54.5162 28.173 54.2586 29.3983C54.001 30.6236 53.3877 31.7449 52.4962 32.6206C51.6046 33.4963 50.4748 34.0873 49.2491 34.3189C48.0234 34.5506 46.7569 34.4125 45.6093 33.9221C44.4617 33.4318 43.4844 32.6111 42.8008 31.5637C42.1172 30.5162 41.7579 29.289 41.7682 28.0367C41.777 27.2019 41.9496 26.377 42.276 25.6092C42.6025 24.8414 43.0764 24.1457 43.6708 23.5619C44.2651 22.9781 44.9682 22.5177 45.7399 22.2068C46.5115 21.896 47.3366 21.7409 48.168 21.7504ZM48.0604 24.9274C47.4341 24.9347 46.824 25.1284 46.3074 25.4841C45.7908 25.8398 45.3909 26.3414 45.1585 26.9255C44.9261 27.5096 44.8716 28.1498 45.0018 28.765C45.1321 29.3802 45.4413 29.9427 45.8903 30.3813C46.3392 30.8199 46.9077 31.1149 47.5238 31.2288C48.1398 31.3427 48.7756 31.2704 49.3507 31.0211C49.9258 30.7719 50.4143 30.3568 50.7543 29.8285C51.0942 29.3002 51.2704 28.6825 51.2604 28.0536C51.2487 27.2125 50.9053 26.4103 50.3054 25.8231C49.7055 25.2359 48.8982 24.9115 48.0604 24.9211V24.9274Z" fill="url(#paint3_linear_249_642)"/>
</g>
<defs>
<filter id="filter0_d_249_642" x="6.19888e-06" y="-0.00039053" width="96.1958" height="79.3289" filterUnits="userSpaceOnUse" color-interpolation-filters="sRGB">
<feFlood flood-opacity="0" result="BackgroundImageFix"/>
<feColorMatrix in="SourceAlpha" type="matrix" values="0 0 0 0 0 0 0 0 0 0 0 0 0 0 0 0 0 0 127 0" result="hardAlpha"/>
<feOffset dy="4"/>
<feGaussianBlur stdDeviation="3.8"/>
<feComposite in2="hardAlpha" operator="out"/>
<feColorMatrix type="matrix" values="0 0 0 0 0.370771 0 0 0 0 0.616871 0 0 0 0 0.714167 0 0 0 0.25 0"/>
<feBlend mode="normal" in2="BackgroundImageFix" result="effect1_dropShadow_249_642"/>
<feBlend mode="normal" in="SourceGraphic" in2="effect1_dropShadow_249_642" result="shape"/>
</filter>
<filter id="filter1_d_249_642" x="24.6758" y="8.57285" width="46.8406" height="46.9705" filterUnits="userSpaceOnUse" color-interpolation-filters="sRGB">
<feFlood flood-opacity="0" result="BackgroundImageFix"/>
<feColorMatrix in="SourceAlpha" type="matrix" values="0 0 0 0 0 0 0 0 0 0 0 0 0 0 0 0 0 0 127 0" result="hardAlpha"/>
<feOffset dy="4"/>
<feGaussianBlur stdDeviation="3.8"/>
<feComposite in2="hardAlpha" operator="out"/>
<feColorMatrix type="matrix" values="0 0 0 0 0.370771 0 0 0 0 0.616871 0 0 0 0 0.714167 0 0 0 0.25 0"/>
<feBlend mode="normal" in2="BackgroundImageFix" result="effect1_dropShadow_249_642"/>
<feBlend mode="normal" in="SourceGraphic" in2="effect1_dropShadow_249_642" result="shape"/>
</filter>
<filter id="filter2_d_249_642" x="34.168" y="18.15" width="27.8267" height="27.8787" filterUnits="userSpaceOnUse" color-interpolation-filters="sRGB">
<feFlood flood-opacity="0" result="BackgroundImageFix"/>
<feColorMatrix in="SourceAlpha" type="matrix" values="0 0 0 0 0 0 0 0 0 0 0 0 0 0 0 0 0 0 127 0" result="hardAlpha"/>
<feOffset dy="4"/>
<feGaussianBlur stdDeviation="3.8"/>
<feComposite in2="hardAlpha" operator="out"/>
<feColorMatrix type="matrix" values="0 0 0 0 0.370771 0 0 0 0 0.616871 0 0 0 0 0.714167 0 0 0 0.25 0"/>
<feBlend mode="normal" in2="BackgroundImageFix" result="effect1_dropShadow_249_642"/>
<feBlend mode="normal" in="SourceGraphic" in2="effect1_dropShadow_249_642" result="shape"/>
</filter>
<linearGradient id="paint0_linear_249_642" x1="48.0979" y1="3.59961" x2="48.0979" y2="67.7281" gradientUnits="userSpaceOnUse">
<stop stop-color="#FE7F30"/>
<stop offset="1" stop-color="#FFB703"/>
</linearGradient>
<linearGradient id="paint1_linear_249_642" x1="48.0961" y1="12.1729" x2="48.0961" y2="43.9432" gradientUnits="userSpaceOnUse">
<stop stop-color="#FE7F30"/>
<stop offset="1" stop-color="#FFB703"/>
</linearGradient>
<linearGradient id="paint2_linear_249_642" x1="48.0935" y1="2.73828" x2="48.0935" y2="5.89837" gradientUnits="userSpaceOnUse">
<stop stop-color="#FE7F30"/>
<stop offset="1" stop-color="#FFB703"/>
</linearGradient>
<linearGradient id="paint3_linear_249_642" x1="48.0813" y1="21.75" x2="48.0813" y2="34.4283" gradientUnits="userSpaceOnUse">
<stop stop-color="#FE7F30"/>
<stop offset="1" stop-color="#FFB703"/>
</linearGradient>
</defs>
</svg>
