<svg width="107" height="97" viewBox="0 0 107 97" fill="none" xmlns="http://www.w3.org/2000/svg">
<g filter="url(#filter0_d_249_615)">
<path d="M51.9848 50.6146C51.5784 53.2689 51.5784 53.2567 54.1225 53.9538C57.9833 55.0208 61.8218 54.4355 65.6745 53.8359C67.6943 53.5229 69.7385 53.2425 71.7868 53.2587C74.5544 53.2811 76.2877 54.716 77.1473 57.3723C78.0962 60.3071 77.9966 63.3394 77.8503 66.3677C77.832 66.7417 77.7853 67.1136 77.7487 67.4855C77.641 68.5708 77.0314 69.2009 76.1658 69.1114C75.3002 69.022 74.784 68.3148 74.8247 67.2416C74.8795 65.819 75.0279 64.3963 74.9852 62.9878C74.963 61.6826 74.8188 60.3823 74.5544 59.1039C74.0586 56.8479 72.9288 55.9537 70.6509 56.1447C68.3141 56.348 65.9895 56.7301 63.6689 57.1C59.5825 57.7483 55.5591 57.7097 51.6292 56.2342C51.521 56.2158 51.4104 56.2158 51.3021 56.2342C50.8185 58.673 51.7085 59.864 54.1591 60.0754C56.7194 60.299 59.3326 60.2929 61.8279 60.8294C67.2066 61.9879 70.0576 65.5568 70.34 71.0321C70.3806 72.04 70.3705 73.0494 70.3095 74.0563C70.2608 75.0725 69.643 75.6822 68.8058 75.6517C67.9687 75.6212 67.4139 74.9586 67.3977 73.9628C67.3794 72.6946 67.4932 71.404 67.3042 70.1602C66.6946 66.1401 64.1952 63.8922 59.7207 63.3638C57.5363 63.1057 55.3214 63.124 53.1329 62.9025C49.6927 62.5509 48.0346 60.6445 48.2256 57.2118C48.3353 55.2789 48.7194 53.3604 48.8799 51.4275C48.9734 50.3219 48.8799 49.1919 48.8433 48.0863C48.8169 47.4075 48.4512 47.2022 47.744 47.1697C46.411 47.1067 45.0435 47.0172 43.7653 46.6636C41.5301 46.0539 40.7173 44.2247 41.6561 42.111C42.1342 41.0998 42.7158 40.1408 43.3915 39.2494C44.3343 37.9487 45.3341 36.6866 46.3765 35.4671C47.7989 33.8066 48.1606 31.9876 48.0752 29.7764C47.7745 22.0065 50.6132 15.387 56.4248 10.2654C63.9534 3.63162 72.7195 1.86343 82.1115 5.34696C91.542 8.84472 96.9228 15.9561 98.5159 25.8986C99.1255 29.6606 98.457 33.1847 96.4514 36.4366C95.2952 38.3104 94.1146 40.1721 92.9441 42.0379C91.9023 43.6846 91.3681 45.6015 91.4079 47.5497C91.4729 56.1061 91.4364 64.6666 91.4343 73.225C91.4456 73.5985 91.4374 73.9723 91.41 74.3449C91.3287 75.1253 90.8146 75.6964 90.1074 75.5968C89.5608 75.5196 89.0041 75.0013 88.6139 74.542C88.4005 74.292 88.5021 73.7534 88.5021 73.3449C88.5021 64.7113 88.5387 56.0695 88.4737 47.4461C88.4275 45.0813 89.0624 42.7531 90.3025 40.7392C91.0808 39.4648 91.8164 38.1519 92.7125 36.963C96.3904 32.0852 96.4168 26.8315 94.3889 21.348C90.7313 11.4421 80.9776 5.5624 70.3278 6.84281C60.4502 8.02973 52.3709 16.1918 51.0887 26.3355C50.9138 27.5939 50.894 28.8689 51.0298 30.1321C51.3305 32.5953 50.6376 34.7029 49.1522 36.6134C47.8883 38.2393 46.5797 39.8225 45.3788 41.4911C44.9012 42.1557 44.6574 42.9911 44.3059 43.7491C45.1187 43.926 45.9132 44.1556 46.73 44.2654C47.2787 44.3426 47.8497 44.2654 48.4085 44.2654C50.2556 44.2268 50.66 44.4361 51.3265 46.2022C51.6211 46.9847 52.1047 47.3973 52.8281 47.7042C55.3458 48.7773 57.9468 48.7427 60.5335 48.1818C63.9229 47.4481 67.2676 46.5132 70.655 45.7714C71.9714 45.5022 73.3124 45.3714 74.656 45.3812C78.3014 45.3568 80.7927 47.1453 82.2476 50.452C83.3794 53.023 83.8488 55.7505 83.9545 58.5165C84.0724 61.6485 83.9972 64.7885 83.9748 67.9266C83.9748 69.1013 83.3652 69.7862 82.4691 69.772C81.573 69.7577 81.067 69.0627 81.0467 67.8757C80.9959 64.1077 80.9674 60.3376 80.8293 56.5716C80.7886 55.47 80.4798 54.3583 80.1628 53.2913C78.9273 49.133 76.562 47.6148 72.3172 48.4501C69.2082 49.0598 66.152 49.9236 63.0715 50.6735C58.6437 51.7527 56.0834 51.7405 51.9848 50.6146Z" fill="url(#paint0_linear_249_615)"/>
</g>
<g filter="url(#filter1_d_249_615)">
<path d="M37.623 59.086C37.6596 62.7667 36.668 66.1181 34.4632 69.059C32.8012 71.2628 31.5014 73.7176 30.6126 76.3309C29.9467 78.2304 28.9867 80.0135 27.7677 81.6151C25.0814 85.1657 20.9016 85.5438 17.4146 82.7756C15.6328 81.3904 14.3031 79.5064 13.5944 77.3634C13.2185 76.2354 13.5193 75.4529 14.393 75.1277C15.2668 74.8025 15.9699 75.2558 16.362 76.4061C16.948 78.2389 18.1545 79.8099 19.7738 80.8489C21.7001 82.0846 23.7017 81.9891 25.0956 80.1965C26.3392 78.6214 27.3185 76.8545 27.9953 74.9651C28.8262 72.4499 30.0616 70.0871 31.6529 67.9696C35.1805 63.3561 35.3573 58.2324 33.6443 52.9644C32.2869 48.7939 28.7675 46.3713 24.3641 46.3164C20.166 46.2656 16.5205 47.7005 13.568 50.7003C11.3653 52.936 10.2863 55.6472 10.585 58.8299C10.6907 59.9701 10.1563 60.7322 9.25813 60.8074C8.40265 60.8806 7.80523 60.2628 7.68534 59.1571C7.27894 55.4988 8.32949 52.247 10.711 49.4992C14.5292 45.095 19.4487 43.0585 25.248 43.4284C31.8053 43.8471 36.5623 48.7411 37.3243 55.6228C37.4584 56.7772 37.5275 57.9316 37.623 59.086Z" fill="url(#paint1_linear_249_615)"/>
</g>
<g filter="url(#filter2_d_249_615)">
<path d="M29.6836 58.5143C29.7649 60.7703 28.8362 62.5649 27.1212 63.9733C26.284 64.6603 25.4164 65.3066 24.5528 65.961C22.5654 67.4711 21.6165 69.4629 21.6592 71.9647C21.6592 72.4484 21.5576 73.1008 21.2426 73.3874C20.9276 73.674 20.1148 73.9016 19.7694 73.7106C19.3081 73.4524 18.8367 72.7879 18.7981 72.2655C18.5583 69.0686 19.4991 66.2943 22.0656 64.2152C22.9657 63.4856 23.9045 62.8067 24.8027 62.0791C26.6945 60.5447 27.2167 58.811 26.5116 56.5002C26.0585 55.0186 25.0608 54.1609 23.5205 54.039C20.8281 53.8357 18.1031 55.9169 18.3937 58.4127C18.5116 59.4289 17.8552 60.0569 16.9713 60.0386C16.0081 60.0244 15.5712 59.4472 15.4961 58.5448C15.4615 58.2113 15.4554 57.8754 15.4778 57.5408C15.7907 53.9333 19.3102 50.9985 23.236 51.0656C26.8936 51.1266 29.3828 53.665 29.6734 57.616C29.7019 57.9148 29.6836 58.2176 29.6836 58.5143Z" fill="url(#paint2_linear_249_615)"/>
</g>
<defs>
<filter id="filter0_d_249_615" x="33.6722" y="-0.00039053" width="72.661" height="87.2527" filterUnits="userSpaceOnUse" color-interpolation-filters="sRGB">
<feFlood flood-opacity="0" result="BackgroundImageFix"/>
<feColorMatrix in="SourceAlpha" type="matrix" values="0 0 0 0 0 0 0 0 0 0 0 0 0 0 0 0 0 0 127 0" result="hardAlpha"/>
<feOffset dy="4"/>
<feGaussianBlur stdDeviation="3.8"/>
<feComposite in2="hardAlpha" operator="out"/>
<feColorMatrix type="matrix" values="0 0 0 0 0.370771 0 0 0 0 0.616871 0 0 0 0 0.714167 0 0 0 0.25 0"/>
<feBlend mode="normal" in2="BackgroundImageFix" result="effect1_dropShadow_249_615"/>
<feBlend mode="normal" in="SourceGraphic" in2="effect1_dropShadow_249_615" result="shape"/>
</filter>
<filter id="filter1_d_249_615" x="-2.43187e-05" y="39.7857" width="45.224" height="56.4139" filterUnits="userSpaceOnUse" color-interpolation-filters="sRGB">
<feFlood flood-opacity="0" result="BackgroundImageFix"/>
<feColorMatrix in="SourceAlpha" type="matrix" values="0 0 0 0 0 0 0 0 0 0 0 0 0 0 0 0 0 0 127 0" result="hardAlpha"/>
<feOffset dy="4"/>
<feGaussianBlur stdDeviation="3.8"/>
<feComposite in2="hardAlpha" operator="out"/>
<feColorMatrix type="matrix" values="0 0 0 0 0.370771 0 0 0 0 0.616871 0 0 0 0 0.714167 0 0 0 0.25 0"/>
<feBlend mode="normal" in2="BackgroundImageFix" result="effect1_dropShadow_249_615"/>
<feBlend mode="normal" in="SourceGraphic" in2="effect1_dropShadow_249_615" result="shape"/>
</filter>
<filter id="filter2_d_249_615" x="7.8646" y="47.4645" width="29.4248" height="37.9168" filterUnits="userSpaceOnUse" color-interpolation-filters="sRGB">
<feFlood flood-opacity="0" result="BackgroundImageFix"/>
<feColorMatrix in="SourceAlpha" type="matrix" values="0 0 0 0 0 0 0 0 0 0 0 0 0 0 0 0 0 0 127 0" result="hardAlpha"/>
<feOffset dy="4"/>
<feGaussianBlur stdDeviation="3.8"/>
<feComposite in2="hardAlpha" operator="out"/>
<feColorMatrix type="matrix" values="0 0 0 0 0.370771 0 0 0 0 0.616871 0 0 0 0 0.714167 0 0 0 0.25 0"/>
<feBlend mode="normal" in2="BackgroundImageFix" result="effect1_dropShadow_249_615"/>
<feBlend mode="normal" in="SourceGraphic" in2="effect1_dropShadow_249_615" result="shape"/>
</filter>
<linearGradient id="paint0_linear_249_615" x1="70.0027" y1="3.59961" x2="70.0027" y2="75.6528" gradientUnits="userSpaceOnUse">
<stop stop-color="#FE7F30"/>
<stop offset="1" stop-color="#FFB703"/>
</linearGradient>
<linearGradient id="paint1_linear_249_615" x1="22.612" y1="43.3857" x2="22.612" y2="84.6" gradientUnits="userSpaceOnUse">
<stop stop-color="#FE7F30"/>
<stop offset="1" stop-color="#FFB703"/>
</linearGradient>
<linearGradient id="paint2_linear_249_615" x1="22.577" y1="51.0645" x2="22.577" y2="73.781" gradientUnits="userSpaceOnUse">
<stop stop-color="#FE7F30"/>
<stop offset="1" stop-color="#FFB703"/>
</linearGradient>
</defs>
</svg>
