<svg width="90" height="97" viewBox="0 0 90 97" fill="none" xmlns="http://www.w3.org/2000/svg">
<g filter="url(#filter0_d_249_623)">
<path d="M66.0507 76.5455C63.0358 85.6479 50.5483 87.66 44.5932 79.3628C41.7146 83.1735 37.8898 85.1322 32.929 84.4793C27.9682 83.8264 24.8009 80.9887 23.1839 76.6725C21.7512 76.5607 20.3346 76.6141 19.0009 76.3194C13.7354 75.1558 10.5708 70.4763 11.3993 65.3039C11.4243 65.1188 11.4099 64.9308 11.3571 64.751C11.3043 64.5713 11.2142 64.4034 11.092 64.2573C7.35002 60.566 6.54816 55.4266 9.01251 50.8309C9.09473 50.6781 9.14286 50.5107 9.1539 50.3394C9.16494 50.168 9.13864 49.9963 9.07666 49.8351C5.89064 44.2461 8.1866 37.5443 13.003 34.9582C13.0538 34.9302 13.0806 34.8616 13.15 34.7651C11.8992 32.842 11.2924 30.7588 11.7228 28.4597C12.2413 25.6982 13.861 23.6607 16.2933 22.167C16.8279 21.8392 17.0524 21.5471 17.0043 20.8967C16.59 15.3306 20.054 11.2277 25.8487 10.3106C26.04 10.2781 26.2221 10.2083 26.3836 10.1056C26.5451 10.0028 26.6824 9.86935 26.7868 9.71362C30.1546 2.60033 39.1193 1.46983 44.2859 7.50596C44.3661 7.59996 44.4596 7.68378 44.612 7.83367C45.8789 6.23826 47.3917 5.00106 49.3348 4.27703C51.7488 3.37116 54.4386 3.39234 56.8364 4.33611C59.2343 5.27987 61.1524 7.07236 62.1858 9.33509C62.4905 10.0083 62.846 10.237 63.6104 10.336C66.1509 10.6498 68.4656 11.8843 70.0713 13.7816C71.677 15.6789 72.4496 18.0924 72.2276 20.5182C72.1528 21.3794 72.3747 21.8468 73.1498 22.3346C77.6188 25.1596 78.8242 30.0525 76.2182 34.4729C76.154 34.5771 76.0926 34.6812 76.0043 34.8311C77.3233 35.5638 78.4692 36.5469 79.3705 37.7192C80.2719 38.8915 80.9093 40.2278 81.2431 41.6446C81.9491 44.3162 81.5832 47.1418 80.2167 49.5709C80.0752 49.7723 79.9973 50.008 79.9921 50.2502C79.9869 50.4923 80.0546 50.7309 80.1873 50.9376C82.665 55.4139 81.8097 60.632 78.0865 64.2573C77.97 64.3717 77.8796 64.5076 77.8207 64.6566C77.7619 64.8057 77.7359 64.9646 77.7444 65.1236C78.065 66.645 77.9931 68.2177 77.5348 69.707C77.0765 71.1963 76.2454 72.5579 75.1126 73.6752C73.9798 74.7926 72.5791 75.6325 71.0303 76.1231C69.4814 76.6136 67.8307 76.7403 66.2191 76.4921C66.1609 76.5032 66.1043 76.5211 66.0507 76.5455ZM59.3419 10.6053C58.92 9.98945 58.4631 9.3958 57.9734 8.827C57.057 7.87224 55.8568 7.20494 54.5321 6.91364C53.2074 6.62234 51.8208 6.72083 50.5563 7.19603C47.8274 8.21221 46.229 10.5113 46.2263 13.5472C46.1978 32.9749 46.1791 52.4018 46.1702 71.8278C46.1702 73.1159 46.1702 74.4521 46.507 75.6792C47.667 79.8659 52.3471 82.3885 56.7546 81.2682C60.1892 80.3892 62.2927 78.24 63.0278 74.917C63.4421 73.06 63.998 72.7196 65.9679 73.2454C66.2542 73.3265 66.5463 73.3876 66.8419 73.4283C72.0272 74.0685 75.852 69.6837 74.2483 64.9203C73.949 64.0337 74.0345 63.3402 74.8497 62.7355C78.752 59.8445 79.4443 55.2666 76.587 51.3644C76.0525 50.6226 76.0257 49.9037 76.6218 49.1873C77.8139 47.7621 78.2977 46.1082 78.303 44.3197C78.303 40.9231 76.1433 37.8568 73.1845 37.1353C72.4201 36.9473 71.8053 36.6882 71.5969 35.9007C71.3884 35.1131 71.7706 34.5872 72.3533 34.0817C74.8497 31.9045 75.0502 28.447 72.7408 26.0894C70.3727 23.6684 67.3711 23.0231 64.0541 23.6938C59.8097 24.5524 57.0326 28.2844 58.3637 31.7165C58.6764 32.5244 58.0242 33.3297 57.1796 33.5228C56.9776 33.5765 56.7664 33.5916 56.5582 33.567C56.35 33.5425 56.149 33.4788 55.967 33.3798C55.7849 33.2807 55.6254 33.1483 55.4977 32.9901C55.37 32.8319 55.2766 32.6511 55.2231 32.4584C54.6636 30.9172 54.6308 29.2473 55.1295 27.6874C56.466 23.5642 59.6065 21.3362 63.9125 20.5893C65.5376 20.3073 67.2642 20.5436 68.9909 20.5436C69.0203 20.3378 69.055 20.1854 69.0657 20.0355C69.1725 18.5664 68.7345 17.1081 67.8278 15.914C66.9211 14.7198 65.6029 13.8653 64.1022 13.4989C61.0098 12.7368 57.8772 13.8901 56.3002 16.6973C56.1504 17.0081 55.9734 17.3064 55.771 17.589C55.2365 18.2369 54.5228 18.4528 53.7343 18.0438C52.9458 17.6348 52.6438 17.0276 52.9325 16.207C53.0901 15.79 53.2897 15.3885 53.5285 15.0079C54.8141 12.8943 56.7306 11.4919 59.3419 10.6053ZM29.9862 10.6815C30.3257 10.8136 30.601 10.9153 30.8709 11.027C33.179 11.929 35.0376 13.6347 36.0669 15.7955C36.238 16.1461 36.4197 16.6923 36.254 16.9488C35.9386 17.4391 35.4522 17.9853 34.9016 18.1429C34.0756 18.3817 33.5117 17.8202 33.1161 17.1038C31.5632 14.2839 28.8235 12.968 25.6856 13.4989C22.2404 14.0807 19.6424 17.4646 20.34 20.5461L21.2113 20.4344C24.5203 20.0507 27.5833 20.6579 30.2989 22.5379C33.6854 24.8802 35.1822 28.7925 34.0409 32.2297C33.6961 33.2764 32.9156 33.754 31.9454 33.4822C31.0527 33.2433 30.6464 32.466 30.8763 31.4295C31.5071 28.7569 30.5903 26.4324 28.1527 24.9233C25.0388 22.9926 21.7379 22.8707 18.4904 24.5347C14.0027 26.8211 13.8183 31.6479 17.031 34.2494C18.2151 35.2046 17.7019 36.5714 16.2292 37.1099C15.1119 37.5189 13.9439 38.0702 13.1073 38.8552C10.3703 41.4236 10.1271 46.0676 12.4177 49.0171C13.1795 49.9951 13.1928 50.5642 12.4738 51.4889C11.1559 53.1946 10.5999 55.3259 10.9268 57.4193C11.2536 59.5126 12.4369 61.3986 14.2192 62.6669C15.021 63.2411 15.2883 63.894 14.9569 64.8111C14.0481 67.3516 14.4945 69.6532 16.4724 71.5713C18.4503 73.4893 20.8745 73.9263 23.5607 73.1514C24.9693 72.745 25.7364 73.1794 26.0331 74.5284C26.0678 74.6833 26.0999 74.8383 26.1347 74.9933C26.8831 78.3111 28.9919 80.4984 32.4185 81.3266C35.8932 82.1675 38.868 81.1361 41.1774 78.5118C42.5993 76.8961 42.8559 75.011 42.8532 72.9228C42.8292 53.2749 42.9013 33.6295 42.9388 13.9841C42.95 13.3512 42.9089 12.7183 42.8158 12.0915C42.5658 10.7269 41.8575 9.47606 40.797 8.52617C39.7364 7.57628 38.3806 6.9785 36.9327 6.82231C35.4847 6.66612 34.0225 6.95994 32.7649 7.65977C31.5074 8.35961 30.5222 9.4278 29.9568 10.7044L29.9862 10.6815Z" fill="url(#paint0_linear_249_623)"/>
</g>
<g filter="url(#filter1_d_249_623)">
<path d="M57.6661 46.1567C55.5947 47.1729 53.5125 47.7877 51.2727 47.7902C50.1127 47.7902 49.4017 47.2084 49.4017 46.2659C49.4017 45.3234 50.07 44.7416 51.2487 44.6908C53.6002 44.6378 55.8581 43.8047 57.6314 42.3358C59.898 40.466 60.9778 38.078 61.2023 35.2607C61.2589 34.6815 61.5456 34.1445 62.0041 33.7592C63.0332 33.0301 64.4097 33.8304 64.423 35.1209C64.4621 38.0968 63.3459 40.982 61.2878 43.225C61.0391 43.468 60.8622 43.769 60.7749 44.0977C60.6876 44.4265 60.6931 44.7712 60.7907 45.0973C61.177 46.728 62.0828 48.2059 63.3847 49.3297C64.6866 50.4535 66.3213 51.1685 68.0661 51.3773C68.4323 51.4154 68.7985 51.4383 69.1593 51.484C70.1803 51.611 70.7977 52.2462 70.7363 53.1125C70.7228 53.3191 70.666 53.5211 70.5693 53.7066C70.4726 53.8921 70.3379 54.0574 70.1731 54.1927C70.0083 54.3281 69.8167 54.4308 69.6096 54.4948C69.4024 54.5588 69.1839 54.5829 68.9669 54.5656C67.395 54.556 65.8416 54.2436 64.4004 53.6471C62.9592 53.0506 61.6603 52.1826 60.5822 51.0953C59.193 49.7054 58.1907 48.0079 57.6661 46.1567Z" fill="url(#paint1_linear_249_623)"/>
</g>
<g filter="url(#filter2_d_249_623)">
<path d="M64.4147 66.475C64.4227 66.7268 64.3838 66.9779 64.2997 67.2168C63.9843 67.9332 63.3723 68.3092 62.549 68.1746C61.6429 68.0222 61.242 67.4404 61.1618 66.569C60.7556 62.0724 57.9731 59.4151 53.277 59.0035C52.1063 58.8994 51.4327 58.2897 51.4835 57.3751C51.5343 56.4605 52.2854 55.9016 53.4347 55.9093C59.2187 55.9499 64.273 60.6904 64.4147 66.475Z" fill="url(#paint2_linear_249_623)"/>
</g>
<g filter="url(#filter3_d_249_623)">
<path d="M58.554 74.75C54.2267 74.656 50.4046 70.9393 50.4233 66.8745C50.4233 65.8787 51.0648 65.1673 51.9896 65.1216C52.9144 65.0759 53.5371 65.6678 53.6948 66.6459C54.2294 70.0018 55.5471 71.2187 59.0672 71.6913C60.0294 71.8183 60.6709 72.5296 60.5774 73.3705C60.4731 74.2546 59.7354 74.7627 58.554 74.75Z" fill="url(#paint3_linear_249_623)"/>
</g>
<g filter="url(#filter4_d_249_623)">
<path d="M31.5337 46.164C30.9124 48.3322 29.64 50.2814 27.8719 51.7733C25.8595 53.4681 23.2959 54.4546 20.6098 54.5678C19.3188 54.6389 18.5197 54.0597 18.4716 53.0867C18.4234 52.1137 19.089 51.5243 20.3773 51.4659C24.8917 51.2652 27.9494 48.0287 28.4359 44.7845C28.4875 44.3122 28.3522 43.8385 28.0563 43.4558C26.0089 41.1034 24.8489 38.4435 24.7848 35.3797C24.7607 34.2645 25.3487 33.5658 26.3083 33.5074C27.2678 33.449 27.9467 34.1273 28.0376 35.2857C28.4626 40.7274 32.3141 44.3628 37.9886 44.6854C39.1486 44.7515 39.8301 45.3561 39.8034 46.2935C39.7767 47.231 39.0577 47.7899 37.8923 47.7873C35.6525 47.7848 33.5864 47.1649 31.5337 46.164Z" fill="url(#paint4_linear_249_623)"/>
</g>
<g filter="url(#filter5_d_249_623)">
<path d="M35.8287 55.9092H35.8768C36.946 55.9092 37.673 56.5062 37.7131 57.3903C37.7532 58.2743 37.093 58.8942 36.0051 58.9984C31.178 59.4506 28.4517 62.0469 28.0267 66.5816C27.9305 67.5978 27.257 68.2482 26.3348 68.2101C25.4127 68.172 24.7899 67.4759 24.7819 66.4597C24.7365 60.9571 29.748 56.0641 35.8287 55.9092Z" fill="url(#paint5_linear_249_623)"/>
</g>
<g filter="url(#filter6_d_249_623)">
<path d="M30.6202 74.7491C29.4468 74.7719 28.7065 74.241 28.6209 73.3366C28.5354 72.4322 29.2089 71.7818 30.3556 71.6649C33.3999 71.3525 35.1159 69.7545 35.4741 66.894C35.6237 65.6923 36.2572 65.0521 37.2328 65.1156C38.2511 65.1842 38.8365 65.9845 38.7616 67.1759C38.465 71.2839 34.8379 74.6601 30.6202 74.7491Z" fill="url(#paint6_linear_249_623)"/>
</g>
<defs>
<filter id="filter0_d_249_623" x="-2.43187e-05" y="-0.00039053" width="89.1945" height="96.2039" filterUnits="userSpaceOnUse" color-interpolation-filters="sRGB">
<feFlood flood-opacity="0" result="BackgroundImageFix"/>
<feColorMatrix in="SourceAlpha" type="matrix" values="0 0 0 0 0 0 0 0 0 0 0 0 0 0 0 0 0 0 127 0" result="hardAlpha"/>
<feOffset dy="4"/>
<feGaussianBlur stdDeviation="3.8"/>
<feComposite in2="hardAlpha" operator="out"/>
<feColorMatrix type="matrix" values="0 0 0 0 0.370771 0 0 0 0 0.616871 0 0 0 0 0.714167 0 0 0 0.25 0"/>
<feBlend mode="normal" in2="BackgroundImageFix" result="effect1_dropShadow_249_623"/>
<feBlend mode="normal" in="SourceGraphic" in2="effect1_dropShadow_249_623" result="shape"/>
</filter>
<filter id="filter1_d_249_623" x="41.8017" y="29.8824" width="36.5387" height="36.2889" filterUnits="userSpaceOnUse" color-interpolation-filters="sRGB">
<feFlood flood-opacity="0" result="BackgroundImageFix"/>
<feColorMatrix in="SourceAlpha" type="matrix" values="0 0 0 0 0 0 0 0 0 0 0 0 0 0 0 0 0 0 127 0" result="hardAlpha"/>
<feOffset dy="4"/>
<feGaussianBlur stdDeviation="3.8"/>
<feComposite in2="hardAlpha" operator="out"/>
<feColorMatrix type="matrix" values="0 0 0 0 0.370771 0 0 0 0 0.616871 0 0 0 0 0.714167 0 0 0 0.25 0"/>
<feBlend mode="normal" in2="BackgroundImageFix" result="effect1_dropShadow_249_623"/>
<feBlend mode="normal" in="SourceGraphic" in2="effect1_dropShadow_249_623" result="shape"/>
</filter>
<filter id="filter2_d_249_623" x="43.8808" y="52.3092" width="28.1348" height="27.492" filterUnits="userSpaceOnUse" color-interpolation-filters="sRGB">
<feFlood flood-opacity="0" result="BackgroundImageFix"/>
<feColorMatrix in="SourceAlpha" type="matrix" values="0 0 0 0 0 0 0 0 0 0 0 0 0 0 0 0 0 0 127 0" result="hardAlpha"/>
<feOffset dy="4"/>
<feGaussianBlur stdDeviation="3.8"/>
<feComposite in2="hardAlpha" operator="out"/>
<feColorMatrix type="matrix" values="0 0 0 0 0.370771 0 0 0 0 0.616871 0 0 0 0 0.714167 0 0 0 0.25 0"/>
<feBlend mode="normal" in2="BackgroundImageFix" result="effect1_dropShadow_249_623"/>
<feBlend mode="normal" in="SourceGraphic" in2="effect1_dropShadow_249_623" result="shape"/>
</filter>
<filter id="filter3_d_249_623" x="42.8232" y="61.5191" width="25.3632" height="24.8309" filterUnits="userSpaceOnUse" color-interpolation-filters="sRGB">
<feFlood flood-opacity="0" result="BackgroundImageFix"/>
<feColorMatrix in="SourceAlpha" type="matrix" values="0 0 0 0 0 0 0 0 0 0 0 0 0 0 0 0 0 0 127 0" result="hardAlpha"/>
<feOffset dy="4"/>
<feGaussianBlur stdDeviation="3.8"/>
<feComposite in2="hardAlpha" operator="out"/>
<feColorMatrix type="matrix" values="0 0 0 0 0.370771 0 0 0 0 0.616871 0 0 0 0 0.714167 0 0 0 0.25 0"/>
<feBlend mode="normal" in2="BackgroundImageFix" result="effect1_dropShadow_249_623"/>
<feBlend mode="normal" in="SourceGraphic" in2="effect1_dropShadow_249_623" result="shape"/>
</filter>
<filter id="filter4_d_249_623" x="10.8691" y="29.9039" width="36.5351" height="36.2693" filterUnits="userSpaceOnUse" color-interpolation-filters="sRGB">
<feFlood flood-opacity="0" result="BackgroundImageFix"/>
<feColorMatrix in="SourceAlpha" type="matrix" values="0 0 0 0 0 0 0 0 0 0 0 0 0 0 0 0 0 0 127 0" result="hardAlpha"/>
<feOffset dy="4"/>
<feGaussianBlur stdDeviation="3.8"/>
<feComposite in2="hardAlpha" operator="out"/>
<feColorMatrix type="matrix" values="0 0 0 0 0.370771 0 0 0 0 0.616871 0 0 0 0 0.714167 0 0 0 0.25 0"/>
<feBlend mode="normal" in2="BackgroundImageFix" result="effect1_dropShadow_249_623"/>
<feBlend mode="normal" in="SourceGraphic" in2="effect1_dropShadow_249_623" result="shape"/>
</filter>
<filter id="filter5_d_249_623" x="17.1816" y="52.3092" width="28.1332" height="27.5027" filterUnits="userSpaceOnUse" color-interpolation-filters="sRGB">
<feFlood flood-opacity="0" result="BackgroundImageFix"/>
<feColorMatrix in="SourceAlpha" type="matrix" values="0 0 0 0 0 0 0 0 0 0 0 0 0 0 0 0 0 0 127 0" result="hardAlpha"/>
<feOffset dy="4"/>
<feGaussianBlur stdDeviation="3.8"/>
<feComposite in2="hardAlpha" operator="out"/>
<feColorMatrix type="matrix" values="0 0 0 0 0.370771 0 0 0 0 0.616871 0 0 0 0 0.714167 0 0 0 0.25 0"/>
<feBlend mode="normal" in2="BackgroundImageFix" result="effect1_dropShadow_249_623"/>
<feBlend mode="normal" in="SourceGraphic" in2="effect1_dropShadow_249_623" result="shape"/>
</filter>
<filter id="filter6_d_249_623" x="21.0136" y="61.5113" width="25.3544" height="24.8387" filterUnits="userSpaceOnUse" color-interpolation-filters="sRGB">
<feFlood flood-opacity="0" result="BackgroundImageFix"/>
<feColorMatrix in="SourceAlpha" type="matrix" values="0 0 0 0 0 0 0 0 0 0 0 0 0 0 0 0 0 0 127 0" result="hardAlpha"/>
<feOffset dy="4"/>
<feGaussianBlur stdDeviation="3.8"/>
<feComposite in2="hardAlpha" operator="out"/>
<feColorMatrix type="matrix" values="0 0 0 0 0.370771 0 0 0 0 0.616871 0 0 0 0 0.714167 0 0 0 0.25 0"/>
<feBlend mode="normal" in2="BackgroundImageFix" result="effect1_dropShadow_249_623"/>
<feBlend mode="normal" in="SourceGraphic" in2="effect1_dropShadow_249_623" result="shape"/>
</filter>
<linearGradient id="paint0_linear_249_623" x1="44.5972" y1="3.59961" x2="44.5972" y2="84.6036" gradientUnits="userSpaceOnUse">
<stop stop-color="#FE7F30"/>
<stop offset="1" stop-color="#FFB703"/>
</linearGradient>
<linearGradient id="paint1_linear_249_623" x1="60.0711" y1="33.4824" x2="60.0711" y2="54.571" gradientUnits="userSpaceOnUse">
<stop stop-color="#FE7F30"/>
<stop offset="1" stop-color="#FFB703"/>
</linearGradient>
<linearGradient id="paint2_linear_249_623" x1="57.9483" y1="55.9092" x2="57.9483" y2="68.2016" gradientUnits="userSpaceOnUse">
<stop stop-color="#FE7F30"/>
<stop offset="1" stop-color="#FFB703"/>
</linearGradient>
<linearGradient id="paint3_linear_249_623" x1="55.5048" y1="65.1191" x2="55.5048" y2="74.7502" gradientUnits="userSpaceOnUse">
<stop stop-color="#FE7F30"/>
<stop offset="1" stop-color="#FFB703"/>
</linearGradient>
<linearGradient id="paint4_linear_249_623" x1="29.1366" y1="33.5039" x2="29.1366" y2="54.5737" gradientUnits="userSpaceOnUse">
<stop stop-color="#FE7F30"/>
<stop offset="1" stop-color="#FFB703"/>
</linearGradient>
<linearGradient id="paint5_linear_249_623" x1="31.2482" y1="55.9092" x2="31.2482" y2="68.2117" gradientUnits="userSpaceOnUse">
<stop stop-color="#FE7F30"/>
<stop offset="1" stop-color="#FFB703"/>
</linearGradient>
<linearGradient id="paint6_linear_249_623" x1="33.6909" y1="65.1113" x2="33.6909" y2="74.7498" gradientUnits="userSpaceOnUse">
<stop stop-color="#FE7F30"/>
<stop offset="1" stop-color="#FFB703"/>
</linearGradient>
</defs>
</svg>
