<svg width="97" height="97" viewBox="0 0 97 97" fill="none" xmlns="http://www.w3.org/2000/svg">
<g filter="url(#filter0_d_249_658)">
<path d="M76.8828 3.60172C77.7069 4.18813 78.6198 4.67961 79.3362 5.37571C82.0241 7.98078 84.6487 10.6491 87.2901 13.3006C89.0398 15.0535 89.0356 17.0131 87.2901 18.7681C83.5477 22.5165 79.8137 26.2775 76.0481 30.0027C74.0279 31.9981 73.3686 34.2741 74.1208 37.0543C74.5889 38.756 74.6474 40.5441 74.2914 42.2727C73.9353 44.0012 73.175 45.6213 72.0723 47.0006C70.9696 48.38 69.5559 49.4796 67.9464 50.2097C66.3369 50.9399 64.5773 51.2798 62.8111 51.2019C57.3169 50.9909 52.6827 46.5929 52.184 41.1317C52.1565 40.8195 52.1164 40.4989 52.0762 40.153C51.3895 40.0559 50.7132 39.9884 50.0497 39.8619C44.2723 38.765 40.42 33.3228 41.0624 27.6465C41.3846 24.7339 42.8371 22.0633 45.1084 20.2069C47.3797 18.3506 50.2891 17.4562 53.2131 17.7155C53.9463 17.7911 54.6712 17.9323 55.3791 18.1374C57.9276 18.8188 60.119 18.2049 61.9701 16.3592C65.6682 12.6763 69.3366 8.96375 73.06 5.3082C73.7532 4.62899 74.6576 4.16281 75.4648 3.59961L76.8828 3.60172ZM76.0375 6.80375C75.8832 6.9493 75.6508 7.15602 75.4331 7.3754C71.8154 10.9888 68.1702 14.5768 64.5926 18.2302C61.6489 21.2361 58.253 22.2233 54.1535 21.1011C49.8468 19.9198 45.4578 22.6367 44.378 27.0073C43.3214 31.2894 46.0051 35.7043 50.3477 36.662C51.4042 36.894 52.539 36.7991 53.64 36.8012C54.7726 36.8012 55.4214 37.415 55.3855 38.5435C55.3855 38.7798 55.3517 39.016 55.3284 39.2523C55.2249 40.3427 55.3458 41.4428 55.6836 42.4849C56.0215 43.527 56.5692 44.4892 57.2931 45.3123C58.017 46.1355 58.9018 46.8022 59.8933 47.2716C60.8847 47.7411 61.9618 48.0032 63.0584 48.042C68.4174 48.2023 72.4705 43.1673 71.0694 37.974C69.9811 33.943 70.9426 30.5743 73.8968 27.6676C77.5611 24.0648 81.1725 20.405 84.8072 16.7684C85.0185 16.5575 85.2298 16.317 85.3735 16.1652L76.0375 6.80375Z" fill="url(#paint0_linear_249_658)"/>
</g>
<g filter="url(#filter1_d_249_658)">
<path d="M7.59998 71.4708C8.16419 70.6629 8.62697 69.7579 9.30742 69.064C12.8688 65.4316 16.4612 61.8316 20.0846 58.264C22.1492 56.2284 22.8212 53.9229 22.0498 51.0752C20.3593 44.8083 24.2962 38.5603 30.7012 37.1997C36.804 35.9046 42.9301 40.1761 43.9402 46.4367C44.0226 46.9556 44.048 47.4914 44.105 48.0462C44.8214 48.1495 45.523 48.217 46.2182 48.3541C48.8014 48.8777 51.1174 50.2924 52.76 52.3502C54.4026 54.4079 55.2669 56.9773 55.2013 59.6076C55.1374 62.2382 54.146 64.762 52.4016 66.7348C50.6571 68.7076 48.2715 70.0029 45.6645 70.3929C44.0978 70.6468 42.4942 70.551 40.9691 70.1123C38.3044 69.334 36.0433 69.9942 34.1118 71.9475C33.0552 73.0022 32.21 73.1456 31.4535 72.4115C30.6969 71.6775 30.8554 70.724 31.8951 69.6904C34.7437 66.8512 38.0783 66.0349 41.9707 67.0833C47.1311 68.4733 52.1499 64.4697 52.0358 59.1457C52.0102 58.0441 51.7576 56.9597 51.2939 55.9598C50.8302 54.9599 50.1651 54.066 49.3403 53.3339C48.5154 52.6017 47.5483 52.0469 46.4993 51.7041C45.4503 51.3612 44.3418 51.2376 43.2429 51.341C43.0083 51.3642 42.7716 51.3895 42.5349 51.398C41.4065 51.4338 40.7916 50.782 40.7937 49.6493C40.7937 48.5756 40.8972 47.4661 40.6732 46.4346C40.4489 45.3969 40.0186 44.4145 39.4077 43.5455C38.7968 42.6765 38.0177 41.9384 37.1164 41.3749C36.215 40.8114 35.2097 40.4339 34.1598 40.2645C33.1099 40.0952 32.0366 40.1376 31.0034 40.3891C26.5911 41.4902 23.9263 45.8735 25.1182 50.242C26.2191 54.2709 25.2365 57.6438 22.2844 60.5484C18.6202 64.1555 15.0066 67.811 11.3741 71.4454C11.1628 71.6564 10.9515 71.899 10.8183 72.0382L20.3086 81.5304C20.6255 81.0912 20.9684 80.6714 21.3356 80.2732C22.0477 79.5729 22.9479 79.5665 23.5925 80.193C24.237 80.8195 24.2264 81.7814 23.5417 82.5133C22.7324 83.3782 21.9125 84.2325 20.7312 84.5974H19.3069C18.4849 84.011 17.5763 83.5174 16.8578 82.8234C14.322 80.3723 11.8277 77.8783 9.37504 75.3415C8.68192 74.6222 8.18744 73.713 7.60209 72.8904L7.59998 71.4708Z" fill="url(#paint1_linear_249_658)"/>
</g>
<path d="M23.7999 35.7212C23.3541 35.7106 22.9094 35.6711 22.4686 35.603C22.1035 35.5268 21.778 35.3221 21.5515 35.0263C21.3249 34.7304 21.2124 34.3632 21.2345 33.9915C21.2564 33.6064 21.4215 33.2433 21.6974 32.9733C21.9733 32.7034 22.3403 32.5459 22.7264 32.5318C23.3836 32.5002 24.043 32.5107 24.7002 32.5423C25.1 32.5489 25.4822 32.7076 25.7689 32.9859C26.0556 33.2642 26.2251 33.6412 26.2428 34.04C26.2525 34.4392 26.1128 34.8276 25.851 35.1295C25.5892 35.4314 25.2241 35.625 24.8269 35.6727C24.4857 35.6948 24.1433 35.6948 23.8021 35.6727L23.7999 35.7212Z" fill="url(#paint2_linear_249_658)"/>
<path d="M39.5764 19.8672C39.5764 20.2089 39.6018 20.5528 39.5764 20.8924C39.5528 21.249 39.4026 21.5854 39.1528 21.8414C38.9029 22.0973 38.5699 22.2559 38.2134 22.2888C37.4125 22.369 36.6624 21.9513 36.5504 21.1729C36.4236 20.2916 36.4108 19.3976 36.5123 18.513C36.6032 17.7262 37.3386 17.2875 38.1374 17.3402C38.5089 17.3603 38.8601 17.5165 39.1236 17.7788C39.3871 18.041 39.5446 18.3911 39.5659 18.7619C39.5975 19.1268 39.5659 19.4981 39.5659 19.8672H39.5764Z" fill="url(#paint3_linear_249_658)"/>
<path d="M27.8187 25.1473C27.9836 24.9363 28.2414 24.4132 28.664 24.0926C28.9023 23.9177 29.1942 23.8315 29.4894 23.8489C29.7846 23.8662 30.0645 23.986 30.2806 24.1875C30.8046 24.622 31.3836 25.0713 31.7006 25.6451C31.9415 26.0796 32.0092 26.8242 31.7915 27.2419C31.5738 27.6595 30.9293 28.016 30.4306 28.0856C29.5008 28.2016 27.8377 26.4488 27.8187 25.1473Z" fill="url(#paint4_linear_249_658)"/>
<path d="M27.5422 74.7317C27.9557 74.7372 28.3505 74.9045 28.6418 75.1976C28.933 75.4907 29.0974 75.8862 29.0996 76.299C29.0972 76.509 29.0526 76.7164 28.9686 76.9089C28.8845 77.1015 28.7627 77.2753 28.6102 77.42C28.4577 77.5647 28.2777 77.6775 28.0808 77.7516C27.884 77.8257 27.6742 77.8597 27.464 77.8515C27.2594 77.8449 27.0582 77.7982 26.8717 77.714C26.6852 77.6297 26.5172 77.5096 26.3773 77.3606C26.2374 77.2115 26.1283 77.0363 26.0562 76.8451C25.9841 76.6539 25.9505 76.4504 25.9573 76.2462C25.9678 75.8361 26.1403 75.4468 26.4372 75.1631C26.7341 74.8794 27.1312 74.7243 27.5422 74.7317Z" fill="url(#paint5_linear_249_658)"/>
<defs>
<filter id="filter0_d_249_658" x="33.3926" y="-0.00039053" width="62.8083" height="62.8133" filterUnits="userSpaceOnUse" color-interpolation-filters="sRGB">
<feFlood flood-opacity="0" result="BackgroundImageFix"/>
<feColorMatrix in="SourceAlpha" type="matrix" values="0 0 0 0 0 0 0 0 0 0 0 0 0 0 0 0 0 0 127 0" result="hardAlpha"/>
<feOffset dy="4"/>
<feGaussianBlur stdDeviation="3.8"/>
<feComposite in2="hardAlpha" operator="out"/>
<feColorMatrix type="matrix" values="0 0 0 0 0.370771 0 0 0 0 0.616871 0 0 0 0 0.714167 0 0 0 0.25 0"/>
<feBlend mode="normal" in2="BackgroundImageFix" result="effect1_dropShadow_249_658"/>
<feBlend mode="normal" in="SourceGraphic" in2="effect1_dropShadow_249_658" result="shape"/>
</filter>
<filter id="filter1_d_249_658" x="-2.43187e-05" y="33.3678" width="62.8048" height="62.8299" filterUnits="userSpaceOnUse" color-interpolation-filters="sRGB">
<feFlood flood-opacity="0" result="BackgroundImageFix"/>
<feColorMatrix in="SourceAlpha" type="matrix" values="0 0 0 0 0 0 0 0 0 0 0 0 0 0 0 0 0 0 127 0" result="hardAlpha"/>
<feOffset dy="4"/>
<feGaussianBlur stdDeviation="3.8"/>
<feComposite in2="hardAlpha" operator="out"/>
<feColorMatrix type="matrix" values="0 0 0 0 0.370771 0 0 0 0 0.616871 0 0 0 0 0.714167 0 0 0 0.25 0"/>
<feBlend mode="normal" in2="BackgroundImageFix" result="effect1_dropShadow_249_658"/>
<feBlend mode="normal" in="SourceGraphic" in2="effect1_dropShadow_249_658" result="shape"/>
</filter>
<linearGradient id="paint0_linear_249_658" x1="64.7967" y1="3.59961" x2="64.7967" y2="51.2128" gradientUnits="userSpaceOnUse">
<stop stop-color="#FE7F30"/>
<stop offset="1" stop-color="#FFB703"/>
</linearGradient>
<linearGradient id="paint1_linear_249_658" x1="31.4024" y1="36.9678" x2="31.4024" y2="84.5974" gradientUnits="userSpaceOnUse">
<stop stop-color="#FE7F30"/>
<stop offset="1" stop-color="#FFB703"/>
</linearGradient>
<linearGradient id="paint2_linear_249_658" x1="23.7375" y1="32.5127" x2="23.7375" y2="35.7212" gradientUnits="userSpaceOnUse">
<stop stop-color="#FE7F30"/>
<stop offset="1" stop-color="#FFB703"/>
</linearGradient>
<linearGradient id="paint3_linear_249_658" x1="38.0162" y1="17.3359" x2="38.0162" y2="22.2985" gradientUnits="userSpaceOnUse">
<stop stop-color="#FE7F30"/>
<stop offset="1" stop-color="#FFB703"/>
</linearGradient>
<linearGradient id="paint4_linear_249_658" x1="29.8709" y1="23.8467" x2="29.8709" y2="28.0911" gradientUnits="userSpaceOnUse">
<stop stop-color="#FE7F30"/>
<stop offset="1" stop-color="#FFB703"/>
</linearGradient>
<linearGradient id="paint5_linear_249_658" x1="27.528" y1="74.7314" x2="27.528" y2="77.8527" gradientUnits="userSpaceOnUse">
<stop stop-color="#FE7F30"/>
<stop offset="1" stop-color="#FFB703"/>
</linearGradient>
</defs>
</svg>
