<svg width="81" height="96" viewBox="0 0 81 96" fill="none" xmlns="http://www.w3.org/2000/svg">
<path d="M33.4521 2.52246C33.577 2.60911 33.7061 2.69576 33.8289 2.78664C34.4429 3.23469 34.7118 3.82646 34.4641 4.56405C34.3664 4.8849 34.1679 5.1659 33.898 5.36559C33.6281 5.56527 33.301 5.67307 32.9651 5.67307C32.6291 5.67307 32.3021 5.56527 32.0322 5.36559C31.7622 5.1659 31.5638 4.8849 31.4661 4.56405C31.231 3.82646 31.4978 3.23258 32.1012 2.78453C32.224 2.69576 32.3532 2.60911 32.4802 2.52246H33.4521Z" fill="url(#paint0_linear_249_597)"/>
<g filter="url(#filter0_d_249_597)">
<path d="M48.4593 74.0478H43.0412C41.4046 74.0478 40.9006 73.5511 40.9006 71.9338C40.9006 69.0588 40.9006 66.1838 40.9006 63.3087C40.9006 61.9621 41.4765 61.3935 42.8337 61.3892C45.3151 61.3892 47.7987 61.3892 50.4072 61.3892V60.5436C50.4072 58.3007 50.4072 56.0598 50.4072 53.819C50.4072 52.4724 50.9831 51.9164 52.3466 51.9037C53.2422 51.9037 54.1399 51.9037 55.1604 51.9037V51.0454C55.1604 43.3716 55.1604 35.6978 55.1604 28.024C55.1456 18.1664 49.2321 9.97256 39.878 6.80157C39.2428 6.59017 38.6077 6.31323 38.5526 5.60927C38.526 5.05301 38.6813 4.50319 38.9951 4.0428C39.4059 3.48048 40.094 3.53967 40.7419 3.74895C44.8671 5.05428 48.5792 7.41319 51.5103 10.592C56.0666 15.5028 58.3236 21.3374 58.3321 28.043C58.3406 35.6393 58.3406 43.2342 58.3321 50.8277V51.8847H59.829C63.0239 51.8847 63.0853 51.9481 63.0853 55.1783C63.0853 57.1514 63.0853 59.1287 63.0853 61.1102C63.0972 61.2014 63.1148 61.2918 63.1383 61.3808H63.9471C66.1914 61.3808 68.4378 61.3808 70.6821 61.3808C71.9927 61.3808 72.5876 61.9621 72.5876 63.2538C72.5876 66.2345 72.5876 69.2145 72.5876 72.1939C72.5876 73.439 71.9842 74.0331 70.735 74.0373C68.2261 74.0373 65.7192 74.0373 63.0811 74.0373V74.8829C63.0811 77.1258 63.0811 79.3667 63.0811 81.6075C63.0811 82.952 62.501 83.5207 61.1396 83.5228C58.2065 83.5228 55.2747 83.5228 52.3445 83.5228C50.9831 83.5228 50.4093 82.952 50.405 81.6075C50.405 80.0072 50.405 78.4048 50.405 76.6692C50.1277 76.8806 49.9456 77.0053 49.7805 77.1491C35.1713 90.0128 12.1334 82.377 8.15505 63.3299C7.81161 61.6512 7.63853 59.9422 7.63843 58.2288C7.59185 48.0252 7.58762 37.8196 7.62573 27.6118C7.66492 22.3556 9.34468 17.2424 12.4311 12.9842C15.5176 8.72594 19.8571 5.53466 24.8454 3.85465L25.072 3.78278C26.2344 3.41283 27.1342 3.7553 27.4179 4.67911C27.7016 5.60293 27.2337 6.39779 26.0523 6.79311C21.479 8.31942 17.7441 11 14.9324 14.9151C12.2439 18.5831 10.7969 23.0115 10.8016 27.5568C10.7635 37.8153 10.7635 48.0739 10.8016 58.3324C10.814 61.3267 11.4348 64.2874 12.6264 67.0352C13.818 69.7831 15.5556 72.2609 17.734 74.3189C19.9125 76.3768 22.4865 77.9719 25.3003 79.0078C28.1141 80.0437 31.1092 80.4988 34.1042 80.3455C39.4355 80.0812 44.0977 78.1152 48.0358 74.4897C48.1459 74.3988 48.2433 74.274 48.4593 74.0478ZM69.3884 64.5539C66.8477 64.5539 64.3811 64.5539 61.9039 64.5539C60.4853 64.5539 59.9243 64 59.92 62.6048C59.92 61.3131 59.92 60.0236 59.92 58.7319V55.1128H53.5788C53.5788 57.6686 53.5788 60.1695 53.5788 62.6682C53.5788 63.9662 52.9902 64.5475 51.6881 64.5518C49.4438 64.5518 47.1995 64.5518 44.9573 64.5518H44.1337V70.8811C46.6744 70.8811 49.1559 70.8811 51.6352 70.8811C52.9966 70.8811 53.5767 71.4519 53.5788 72.7943C53.5788 75.033 53.5788 77.2738 53.5788 79.5146V80.3349H59.9179V79.4428C59.9179 77.1766 59.9179 74.9104 59.9179 72.6442C59.9179 71.5005 60.5383 70.898 61.6901 70.8832C62.8419 70.8684 64.0191 70.8832 65.173 70.8832H69.3842L69.3884 64.5539Z" fill="url(#paint1_linear_249_597)"/>
</g>
<g filter="url(#filter1_d_249_597)">
<path d="M32.9756 11.9824C42.1094 12.0184 49.4203 19.7091 48.7725 28.8246C48.349 34.8051 45.3234 39.2171 39.9943 42.0097C39.7839 42.0966 39.6007 42.2384 39.464 42.4203C39.3273 42.6022 39.2421 42.8174 39.2172 43.0434C38.6562 46.244 36.0731 48.4256 32.9311 48.4087C29.8399 48.3939 27.2886 46.2017 26.7254 43.0349C26.6407 42.5572 26.501 42.2654 26.0225 42.0329C19.73 38.9718 16.1433 32.0295 17.329 25.2731C18.5633 18.2399 24.0703 12.9845 31.0912 12.1452C31.7179 12.0712 32.3531 12.0353 32.9756 11.9824ZM39.3168 16.8446C38.7917 21.5398 36.6935 25.1167 32.7744 27.4844C28.8554 29.852 24.6505 30.0043 20.3884 28.3131C19.9967 32.1457 23.7358 37.917 27.3606 39.0944C28.6309 36.9805 30.4857 35.7691 32.9946 35.7734C35.5036 35.7776 37.3435 37.0122 38.6604 39.1896C42.8949 36.8346 45.3531 33.3296 45.6072 28.5393C45.8739 23.4995 43.6466 19.6626 39.3168 16.8404V16.8446ZM25.2031 26.2604C31.3876 26.2604 36.0943 21.6836 36.1536 16.259C36.1536 15.739 36.0138 15.5487 35.4951 15.4325C29.2471 14.033 22.4909 18.0855 20.8098 24.2436C20.67 24.7615 20.8098 24.9856 21.2756 25.2013C22.7301 25.8798 24.2461 26.2498 25.2031 26.2561V26.2604ZM32.9459 38.9232C32.3169 38.927 31.7032 39.1173 31.1826 39.4698C30.662 39.8223 30.258 40.3212 30.0218 40.9033C29.7856 41.4854 29.7278 42.1244 29.8558 42.7393C29.9837 43.3542 30.2917 43.9174 30.7407 44.3573C31.1896 44.7972 31.7593 45.0941 32.3774 45.2104C32.9956 45.3266 33.6344 45.257 34.2128 45.0102C34.7913 44.7635 35.2833 44.3509 35.6266 43.8246C35.9698 43.2983 36.1488 42.682 36.1409 42.054C36.1314 41.216 35.79 40.4158 35.1913 39.8283C34.5926 39.2408 33.7853 38.9139 32.9459 38.919V38.9232Z" fill="url(#paint2_linear_249_597)"/>
</g>
<defs>
<filter id="filter0_d_249_597" x="6.19888e-06" y="-0.00039053" width="80.1876" height="95.1229" filterUnits="userSpaceOnUse" color-interpolation-filters="sRGB">
<feFlood flood-opacity="0" result="BackgroundImageFix"/>
<feColorMatrix in="SourceAlpha" type="matrix" values="0 0 0 0 0 0 0 0 0 0 0 0 0 0 0 0 0 0 127 0" result="hardAlpha"/>
<feOffset dy="4"/>
<feGaussianBlur stdDeviation="3.8"/>
<feComposite in2="hardAlpha" operator="out"/>
<feColorMatrix type="matrix" values="0 0 0 0 0.370771 0 0 0 0 0.616871 0 0 0 0 0.714167 0 0 0 0.25 0"/>
<feBlend mode="normal" in2="BackgroundImageFix" result="effect1_dropShadow_249_597"/>
<feBlend mode="normal" in="SourceGraphic" in2="effect1_dropShadow_249_597" result="shape"/>
</filter>
<filter id="filter1_d_249_597" x="9.50391" y="8.38242" width="46.9085" height="51.6268" filterUnits="userSpaceOnUse" color-interpolation-filters="sRGB">
<feFlood flood-opacity="0" result="BackgroundImageFix"/>
<feColorMatrix in="SourceAlpha" type="matrix" values="0 0 0 0 0 0 0 0 0 0 0 0 0 0 0 0 0 0 127 0" result="hardAlpha"/>
<feOffset dy="4"/>
<feGaussianBlur stdDeviation="3.8"/>
<feComposite in2="hardAlpha" operator="out"/>
<feColorMatrix type="matrix" values="0 0 0 0 0.370771 0 0 0 0 0.616871 0 0 0 0 0.714167 0 0 0 0.25 0"/>
<feBlend mode="normal" in2="BackgroundImageFix" result="effect1_dropShadow_249_597"/>
<feBlend mode="normal" in="SourceGraphic" in2="effect1_dropShadow_249_597" result="shape"/>
</filter>
<linearGradient id="paint0_linear_249_597" x1="32.9685" y1="2.52246" x2="32.9685" y2="5.67307" gradientUnits="userSpaceOnUse">
<stop stop-color="#FE7F30"/>
<stop offset="1" stop-color="#FFB703"/>
</linearGradient>
<linearGradient id="paint1_linear_249_597" x1="40.0938" y1="3.59961" x2="40.0938" y2="83.5228" gradientUnits="userSpaceOnUse">
<stop stop-color="#FE7F30"/>
<stop offset="1" stop-color="#FFB703"/>
</linearGradient>
<linearGradient id="paint2_linear_249_597" x1="32.9582" y1="11.9824" x2="32.9582" y2="48.4088" gradientUnits="userSpaceOnUse">
<stop stop-color="#FE7F30"/>
<stop offset="1" stop-color="#FFB703"/>
</linearGradient>
</defs>
</svg>
