<svg width="82" height="97" viewBox="0 0 82 97" fill="none" xmlns="http://www.w3.org/2000/svg">
<g filter="url(#filter0_d_249_651)">
<path d="M51.8137 13.1346C53.5379 12.4457 55.2378 12.2263 56.9682 12.5573C59.4407 13.023 61.1996 14.4393 62.4297 16.4734C63.7921 18.725 64.2251 21.1786 64.2007 23.7438C64.2064 24.2384 64.3694 24.7199 64.6684 25.1255C67.0779 28.22 68.3488 31.6416 67.8628 35.4942C67.3524 39.5355 64.0117 41.61 59.8331 40.617C57.692 40.107 55.8987 39.0216 54.3859 37.5225C54.0117 37.1511 53.6823 37.0895 53.1293 37.1492C51.6673 37.3128 50.187 37.3147 48.7149 37.4013C48.4485 37.4167 48.0784 37.4456 47.9381 37.6091C45.736 40.1667 42.7003 41.1693 39.4185 41.4983C32.3018 42.2104 25.9436 40.3129 20.3743 36.1273C18.1071 34.4242 16.6838 32.1919 16.757 29.3227C16.8444 25.8433 19.5691 22.62 23.3002 21.6251C23.9326 21.4557 24.1908 21.219 24.3169 20.5724C24.9838 16.9391 28.2229 14.0083 32.2571 13.3944C33.5645 13.2019 34.9004 13.2019 36.2282 13.0807C36.4966 13.0557 36.9134 12.9017 36.9785 12.7189C37.9951 9.85541 40.3863 8.85664 43.2818 8.59493C44.2758 8.51374 45.2763 8.53762 46.2647 8.66613C48.784 8.97981 50.5347 10.3096 51.5229 12.5149C51.588 12.6881 51.6774 12.8632 51.8137 13.1346ZM40.0508 33.7411C39.5547 34.1587 39.0484 34.6533 38.4709 35.0574C36.6938 36.3005 34.7926 36.4718 32.8691 35.4115C28.9346 33.2388 26.1591 30.1367 24.7114 26.0223C24.508 25.4354 24.3637 24.8292 24.1908 24.2307C21.5475 24.9754 19.7175 27.0519 19.6443 29.3746C19.5853 31.4664 20.7748 32.9925 22.4076 34.1587C27.6841 37.9267 33.5808 39.6278 40.1891 38.5848C41.9744 38.3019 43.6702 37.7207 45.0244 36.5199L40.0508 33.7411ZM39.4896 29.6325C40.061 28.6414 40.608 27.6253 41.2261 26.6497C41.5352 26.1589 41.4904 25.8068 41.161 25.3372C39.5791 23.0953 38.2412 20.7379 37.3485 18.1592C37.0842 17.3894 37.0313 16.2868 36.4803 15.9789C35.8174 15.6074 34.7235 15.8884 33.8207 15.95C31.7142 16.0962 29.8964 16.8564 28.4995 18.3863C27.7227 19.2388 27.1941 20.2087 27.1534 21.371C32.4238 22.6103 35.3864 26.8171 39.4896 29.6325ZM54.8678 33.5929C57.9381 32.0534 59.7478 29.646 60.7644 26.5977C61.0674 25.6798 60.925 25.0235 60.0853 24.4655C59.52 24.0806 59.0544 23.5745 58.479 23.2108C56.71 22.0946 54.9105 21.0227 53.0012 19.8584C52.9593 20.0521 52.9308 20.2482 52.9158 20.4454C53.0601 23.3012 53.174 26.1589 53.3753 29.0128C53.4524 30.6349 53.9661 32.2115 54.8678 33.5929ZM51.8361 34.6051C51.3989 32.9925 50.7686 31.4761 50.6161 29.9154C50.2541 26.386 50.1138 22.8355 49.884 19.2927C49.8678 19.0617 49.8027 18.8366 49.7112 18.342C49.4114 18.6423 49.1323 18.9605 48.8755 19.2946C47.8466 20.9092 46.9174 22.5892 45.793 24.1422C44.9207 25.3468 45.1179 26.1974 46.0919 27.2501C48.0154 29.3323 49.453 31.6647 49.2496 34.6051H51.8361ZM63.483 28.372C62.5395 29.8115 61.7607 31.3144 60.6688 32.5711C59.5769 33.8277 58.1841 34.8303 56.8706 35.9811C58.0682 37.053 59.5444 37.8862 61.3439 38.0806C63.2654 38.2884 64.5973 37.3859 64.9267 35.5789C65.4187 33.006 64.7213 30.6216 63.483 28.372ZM27.2388 24.1614C27.3791 24.7099 27.4299 25.0082 27.5316 25.2891C28.6845 28.4625 30.8236 30.9007 33.7739 32.7173C35.4006 33.7199 36.5311 33.4871 37.7227 31.8436C34.2497 29.4093 31.5474 26.0319 27.2388 24.1614ZM61.0938 21.6462C61.0145 19.8103 60.1097 17.7551 58.9425 16.6004C57.4175 15.0936 54.8576 14.6895 52.9422 15.6536C52.3769 15.9365 52.3322 16.6601 52.9137 16.916C55.8385 18.1633 58.5866 19.7524 61.0938 21.6462ZM39.7641 16.0347C40.4229 18.7288 41.6348 20.9053 43.0581 23.078L46.5433 17.4972L39.7641 16.0347ZM39.9105 13.1731C42.7084 13.8601 45.4432 14.5317 48.1781 15.1995C48.8267 15.3554 49.3167 14.9108 49.1378 14.3142C48.6742 12.7747 47.7328 11.5643 45.9658 11.4276C44.5831 11.318 43.1537 11.4796 41.7731 11.6817C41.3485 11.746 40.9505 11.9189 40.6222 12.1818C40.294 12.4446 40.0479 12.7874 39.9105 13.1731ZM41.7141 31.4915L46.1468 33.9451C46.163 31.6512 44.9003 30.1117 43.4892 28.5221C42.8833 29.5266 42.3526 30.4138 41.7141 31.4915Z" fill="url(#paint0_linear_249_651)"/>
</g>
<g filter="url(#filter1_d_249_651)">
<path d="M14.4204 55.8349C13.3062 55.7829 12.2183 55.7521 11.1346 55.679C8.46276 55.4981 6.93572 53.2908 7.88123 50.9103C9.10123 47.864 10.4026 44.8446 11.6205 41.7964C11.7982 41.3261 11.8251 40.8166 11.6978 40.3319C6.86863 23.528 18.4749 6.49707 36.6976 4.00497C44.4914 2.9427 52.1042 3.90105 59.0846 7.67865C64.778 10.7577 68.438 15.4629 70.7113 21.1745C72.9479 26.786 74.0195 32.5862 73.4542 38.5999C73.0476 42.9106 71.7299 47.0057 70.0972 51.0258C68.4319 55.1344 66.6405 59.2026 65.1847 63.3805C63.011 69.654 62.8179 76.0815 64.2656 82.5417C64.3734 83.0209 64.3062 83.6848 64.0195 84.0505C63.7674 84.3699 63.0232 84.6047 62.6226 84.4873C62.368 84.3938 62.1386 84.2479 61.9508 84.0602C61.763 83.8725 61.6216 83.6477 61.5369 83.4019C60.6558 79.7714 60.3021 76.0441 60.4856 72.3232C60.8354 65.8052 63.1656 59.8145 65.7519 53.8681C67.5108 49.8269 69.3184 45.7857 70.0769 41.4288C71.6588 32.363 70.0057 23.8532 64.6174 16.1653C61.1607 11.2215 55.9981 8.46766 49.9489 7.26106C44.3491 6.13528 38.7432 5.9794 33.1617 7.51508C22.8445 10.3459 14.7986 19.4483 13.6966 29.5379C13.2807 33.1616 13.6262 36.8274 14.7132 40.3242C14.8704 40.897 14.8377 41.5016 14.6197 42.0562C13.355 45.2411 12.015 48.3971 10.7035 51.5646C10.2724 52.6096 10.4697 52.9117 11.6775 52.9579C12.8853 53.0041 14.0361 53.0368 15.2155 53.0714C16.4639 53.1061 16.8726 53.4159 17.141 54.5821C17.9449 58.0742 18.7447 61.5677 19.5404 65.0624C20.2785 68.3223 22.3708 69.7849 25.8437 69.4135C30.681 68.8977 35.5183 68.3858 40.3475 67.8143C40.931 67.745 41.539 67.4005 42.0107 67.0445C44.0868 65.4511 45.1604 63.2477 46.0205 60.9288C46.1174 60.5979 46.2453 60.2759 46.4027 59.9666C46.7809 59.345 47.3787 59.0987 48.1006 59.3373C48.8224 59.5759 49.286 60.1609 49.0623 60.8768C48.0152 64.2195 46.4536 67.2697 43.4544 69.4981C42.1551 70.4603 40.6443 70.6085 39.1071 70.7548C38.3609 70.826 37.6147 70.9184 36.7363 71.0146C36.9274 71.3879 37.0779 71.6823 37.2304 71.9768C39.0726 75.508 39.646 79.1452 38.247 82.9459C38.1677 83.1614 38.0864 83.3769 37.9888 83.5867C37.5821 84.4488 36.8339 84.7971 36.0307 84.5027C35.2275 84.2083 34.9286 83.4558 35.3007 82.5687C36.474 79.7841 36.3174 77.0283 35.1462 74.2937C33.851 71.2532 33.8266 71.2628 30.4024 71.7035C28.6334 71.9306 26.8604 72.1442 25.0832 72.2635C21.1772 72.5194 17.7205 69.9446 16.8238 66.1535C16.0796 62.9706 15.3598 59.7818 14.6278 56.5969C14.5689 56.3391 14.4936 56.1024 14.4204 55.8349Z" fill="url(#paint1_linear_249_651)"/>
</g>
<defs>
<filter id="filter0_d_249_651" x="9.15427" y="4.94785" width="66.4111" height="48.2967" filterUnits="userSpaceOnUse" color-interpolation-filters="sRGB">
<feFlood flood-opacity="0" result="BackgroundImageFix"/>
<feColorMatrix in="SourceAlpha" type="matrix" values="0 0 0 0 0 0 0 0 0 0 0 0 0 0 0 0 0 0 127 0" result="hardAlpha"/>
<feOffset dy="4"/>
<feGaussianBlur stdDeviation="3.8"/>
<feComposite in2="hardAlpha" operator="out"/>
<feColorMatrix type="matrix" values="0 0 0 0 0.370771 0 0 0 0 0.616871 0 0 0 0 0.714167 0 0 0 0.25 0"/>
<feBlend mode="normal" in2="BackgroundImageFix" result="effect1_dropShadow_249_651"/>
<feBlend mode="normal" in="SourceGraphic" in2="effect1_dropShadow_249_651" result="shape"/>
</filter>
<filter id="filter1_d_249_651" x="-2.43187e-05" y="-0.00039053" width="81.2032" height="96.2059" filterUnits="userSpaceOnUse" color-interpolation-filters="sRGB">
<feFlood flood-opacity="0" result="BackgroundImageFix"/>
<feColorMatrix in="SourceAlpha" type="matrix" values="0 0 0 0 0 0 0 0 0 0 0 0 0 0 0 0 0 0 127 0" result="hardAlpha"/>
<feOffset dy="4"/>
<feGaussianBlur stdDeviation="3.8"/>
<feComposite in2="hardAlpha" operator="out"/>
<feColorMatrix type="matrix" values="0 0 0 0 0.370771 0 0 0 0 0.616871 0 0 0 0 0.714167 0 0 0 0.25 0"/>
<feBlend mode="normal" in2="BackgroundImageFix" result="effect1_dropShadow_249_651"/>
<feBlend mode="normal" in="SourceGraphic" in2="effect1_dropShadow_249_651" result="shape"/>
</filter>
<linearGradient id="paint0_linear_249_651" x1="42.3598" y1="8.54785" x2="42.3598" y2="41.6449" gradientUnits="userSpaceOnUse">
<stop stop-color="#FE7F30"/>
<stop offset="1" stop-color="#FFB703"/>
</linearGradient>
<linearGradient id="paint1_linear_249_651" x1="40.6016" y1="3.59961" x2="40.6016" y2="84.6055" gradientUnits="userSpaceOnUse">
<stop stop-color="#FE7F30"/>
<stop offset="1" stop-color="#FFB703"/>
</linearGradient>
</defs>
</svg>
