<svg width="97" height="97" viewBox="0 0 97 97" fill="none" xmlns="http://www.w3.org/2000/svg">
<g filter="url(#filter0_d_249_605)">
<path d="M45.7818 59.8515C46.1168 62.2064 46.451 64.5622 46.7844 66.9187C47.1566 69.5576 47.0171 72.1406 45.8702 74.598C44.0557 78.4981 40.5501 79.9502 36.5536 78.4027C32.9153 77.0065 30.5728 74.242 29.0747 70.7607C26.7371 65.2705 25.2084 59.47 24.5362 53.5405C23.9756 48.7956 23.0683 44.1671 21.4213 39.6387C19.344 33.9258 19.5324 28.1989 22.724 22.8374C25.0503 18.9186 28.6723 16.9616 33.1224 16.3054C36.3047 15.8399 39.2264 16.6823 42.1226 17.7947C43.9115 18.4811 45.7051 19.1583 47.473 19.889C48.101 20.1573 48.7765 20.2967 49.4594 20.2991C50.1422 20.3015 50.8187 20.1668 51.4486 19.903C53.8772 18.9419 56.3081 17.9739 58.7762 17.1245C64.0638 15.307 69.0117 16.0261 73.3897 19.5353C76.593 22.0951 78.0678 25.6857 78.6168 29.6719C79.1365 33.3769 78.6545 37.1535 77.2211 40.6091C75.5369 44.7233 74.9669 49.0656 74.4296 53.4242C73.7439 59.3483 72.2246 65.1457 69.9167 70.6443C68.4814 74.0139 66.2621 76.7226 62.8216 78.2212C58.5343 80.0829 54.7169 78.5354 52.9071 74.2187C51.7649 71.489 51.7952 68.678 52.3395 65.8227C52.9118 62.8417 53.27 59.8375 52.7769 56.81C52.6349 55.9815 52.3878 55.1745 52.0418 54.4085C51.5602 53.3218 50.7786 52.491 49.4829 52.484C48.1872 52.477 47.3404 53.2799 46.9124 54.3852C46.5122 55.5049 46.217 56.6595 46.0307 57.8339C45.9098 58.4808 46.0098 59.1673 46.0098 59.8375L45.7818 59.8515ZM42.9671 59.8515L43.216 59.8259C43.216 59.0975 43.1601 58.3668 43.2276 57.6454C43.4137 55.6884 43.8371 53.7942 44.9955 52.1489C47.3055 48.8701 51.6882 48.8515 53.9516 52.1652C54.5282 53.0348 54.9625 53.9908 55.238 54.9972C56.1848 58.3505 55.887 61.7457 55.3241 65.1199C54.9263 67.5051 54.4541 69.8718 55.1775 72.2803C56.3244 76.092 59.0414 77.2159 62.5076 75.2728C64.8966 73.9348 66.4343 71.8474 67.4578 69.3714C69.5889 64.2079 70.998 58.775 71.6451 53.2264C72.229 48.2814 73.0571 43.4109 74.9227 38.7405C76.2603 35.3942 76.3441 31.8803 75.5113 28.3595C73.8038 21.1456 67.3066 17.3758 60.2325 19.6121C57.7178 20.4056 55.2613 21.3993 52.8141 22.3906C51.7574 22.842 50.6203 23.0747 49.4713 23.0747C48.3222 23.0747 47.1851 22.842 46.1284 22.3906C43.6812 21.3969 41.2247 20.4056 38.7123 19.5981C32.4803 17.6015 26.3088 20.4591 24.057 26.3699C22.4817 30.4316 22.5058 34.9401 24.1244 38.9848C25.592 42.8137 26.56 46.8158 27.0043 50.8923C27.6673 56.924 28.8653 62.8417 31.18 68.4709C31.8483 70.0436 32.6927 71.5354 33.697 72.9179C34.774 74.3866 36.3122 75.4517 38.0657 75.943C40.2477 76.6086 41.8737 75.9919 43.0322 74.0162C44.2744 71.9009 44.3512 69.5948 44.0162 67.2492C43.6611 64.7872 43.3113 62.3197 42.9671 59.8468V59.8515Z" fill="url(#paint0_linear_249_605)"/>
</g>
<g filter="url(#filter1_d_249_605)">
<path d="M14.547 25.9326C13.7119 25.9093 13.2211 25.3019 13.1815 24.2478C13.0838 21.6461 12.2022 19.361 10.3249 17.5319C9.75394 16.9973 9.13661 16.5144 8.48019 16.0891C7.31706 15.3119 7.29613 14.2042 8.48019 13.4642C11.5043 11.549 13.0513 8.78219 13.1932 5.21482C13.2327 4.19557 13.7817 3.58588 14.6238 3.59984C15.4659 3.61381 15.9521 4.21651 15.9893 5.1962C16.1219 8.76357 17.6549 11.5304 20.686 13.4549C21.8724 14.2065 21.8771 15.3165 20.7 16.0682C17.6758 17.9857 16.1266 20.7479 15.9893 24.3176C15.9405 25.3345 15.3868 25.9535 14.547 25.9326ZM14.5819 11.1907L11.6695 14.7604L14.5773 18.3417L17.4967 14.7837C16.5313 13.5852 15.552 12.3798 14.5866 11.1907H14.5819Z" fill="url(#paint1_linear_249_605)"/>
</g>
<g filter="url(#filter2_d_249_605)">
<path d="M81.6313 62.2551C82.4455 62.2691 82.9735 62.8625 83.0038 63.8398C83.0271 65.5311 83.4777 67.1889 84.3135 68.6592C85.0875 69.998 86.1717 71.1312 87.4748 71.9636C88.9706 72.9316 88.9683 73.8927 87.5051 74.8584C84.6322 76.7526 83.148 79.4474 83.0177 82.8751C82.9875 83.6873 82.7549 84.3132 81.9267 84.5459C81.0218 84.8019 80.2472 84.0968 80.2123 82.9985C80.1285 80.3293 79.2329 77.9999 77.2952 76.1313C76.7438 75.6139 76.1475 75.1466 75.5133 74.7351C74.3501 73.9579 74.3176 72.8502 75.4877 72.1148C78.5257 70.202 80.0657 67.4375 80.21 63.8701C80.2518 62.8532 80.7869 62.2412 81.6313 62.2551ZM81.608 69.8436L78.6979 73.425L81.608 77.004L84.5205 73.425L81.608 69.8436Z" fill="url(#paint2_linear_249_605)"/>
</g>
<path d="M38.3145 67.7237C38.2424 68.5405 37.8841 69.0455 37.1746 69.1898C36.4139 69.3434 35.8556 68.9827 35.5835 68.2776C34.9065 66.5183 34.2133 64.7614 33.6178 62.9742C32.0848 58.3806 31.452 53.5939 30.6146 48.8467C30.1331 46.1124 29.3468 43.4293 28.7396 40.7137C28.6326 40.2366 28.5535 39.613 28.7722 39.2383C28.9909 38.8636 29.6515 38.503 30.026 38.5798C30.4913 38.6752 31.1194 39.1522 31.252 39.5943C31.9359 41.8679 32.5849 44.1623 33.0618 46.4894C33.9435 50.8107 34.5739 55.1879 35.5532 59.486C36.1231 61.9876 37.163 64.3728 37.9935 66.8278C38.1121 67.1559 38.2331 67.4794 38.3145 67.7237Z" fill="url(#paint3_linear_249_605)"/>
<path d="M26.9154 32.1087C27.3597 30.3797 27.6249 28.5785 28.2925 26.9403C29.2719 24.5364 31.2352 23.2729 33.8639 23.1588C34.8223 23.1146 35.4597 23.6429 35.5202 24.448C35.5807 25.2532 34.9619 25.8908 33.9639 25.9373C32.4356 26.0048 31.3027 26.7425 30.8212 28.1434C30.3838 29.4139 30.2233 30.7799 29.9628 32.0994C29.9023 32.4089 29.9628 32.7416 29.9256 33.0558C29.8881 33.407 29.719 33.7311 29.4522 33.9625C29.1854 34.194 28.8409 34.3157 28.488 34.3031C28.1367 34.2856 27.805 34.1362 27.5592 33.8847C27.3134 33.6331 27.1715 33.298 27.162 32.9464C27.1434 32.6858 27.162 32.4228 27.162 32.1622L26.9154 32.1087Z" fill="url(#paint4_linear_249_605)"/>
<defs>
<filter id="filter0_d_249_605" x="12.457" y="12.5592" width="73.9629" height="78.0525" filterUnits="userSpaceOnUse" color-interpolation-filters="sRGB">
<feFlood flood-opacity="0" result="BackgroundImageFix"/>
<feColorMatrix in="SourceAlpha" type="matrix" values="0 0 0 0 0 0 0 0 0 0 0 0 0 0 0 0 0 0 127 0" result="hardAlpha"/>
<feOffset dy="4"/>
<feGaussianBlur stdDeviation="3.8"/>
<feComposite in2="hardAlpha" operator="out"/>
<feColorMatrix type="matrix" values="0 0 0 0 0.370771 0 0 0 0 0.616871 0 0 0 0 0.714167 0 0 0 0.25 0"/>
<feBlend mode="normal" in2="BackgroundImageFix" result="effect1_dropShadow_249_605"/>
<feBlend mode="normal" in="SourceGraphic" in2="effect1_dropShadow_249_605" result="shape"/>
</filter>
<filter id="filter1_d_249_605" x="-2.43187e-05" y="-0.00039053" width="29.1793" height="37.533" filterUnits="userSpaceOnUse" color-interpolation-filters="sRGB">
<feFlood flood-opacity="0" result="BackgroundImageFix"/>
<feColorMatrix in="SourceAlpha" type="matrix" values="0 0 0 0 0 0 0 0 0 0 0 0 0 0 0 0 0 0 127 0" result="hardAlpha"/>
<feOffset dy="4"/>
<feGaussianBlur stdDeviation="3.8"/>
<feComposite in2="hardAlpha" operator="out"/>
<feColorMatrix type="matrix" values="0 0 0 0 0.370771 0 0 0 0 0.616871 0 0 0 0 0.714167 0 0 0 0.25 0"/>
<feBlend mode="normal" in2="BackgroundImageFix" result="effect1_dropShadow_249_605"/>
<feBlend mode="normal" in="SourceGraphic" in2="effect1_dropShadow_249_605" result="shape"/>
</filter>
<filter id="filter2_d_249_605" x="67.0254" y="58.6549" width="29.1742" height="37.5437" filterUnits="userSpaceOnUse" color-interpolation-filters="sRGB">
<feFlood flood-opacity="0" result="BackgroundImageFix"/>
<feColorMatrix in="SourceAlpha" type="matrix" values="0 0 0 0 0 0 0 0 0 0 0 0 0 0 0 0 0 0 127 0" result="hardAlpha"/>
<feOffset dy="4"/>
<feGaussianBlur stdDeviation="3.8"/>
<feComposite in2="hardAlpha" operator="out"/>
<feColorMatrix type="matrix" values="0 0 0 0 0.370771 0 0 0 0 0.616871 0 0 0 0 0.714167 0 0 0 0.25 0"/>
<feBlend mode="normal" in2="BackgroundImageFix" result="effect1_dropShadow_249_605"/>
<feBlend mode="normal" in="SourceGraphic" in2="effect1_dropShadow_249_605" result="shape"/>
</filter>
<linearGradient id="paint0_linear_249_605" x1="49.4385" y1="16.1592" x2="49.4385" y2="79.0113" gradientUnits="userSpaceOnUse">
<stop stop-color="#FE7F30"/>
<stop offset="1" stop-color="#FFB703"/>
</linearGradient>
<linearGradient id="paint1_linear_249_605" x1="14.5896" y1="3.59961" x2="14.5896" y2="25.9331" gradientUnits="userSpaceOnUse">
<stop stop-color="#FE7F30"/>
<stop offset="1" stop-color="#FFB703"/>
</linearGradient>
<linearGradient id="paint2_linear_249_605" x1="81.6125" y1="62.2549" x2="81.6125" y2="84.5985" gradientUnits="userSpaceOnUse">
<stop stop-color="#FE7F30"/>
<stop offset="1" stop-color="#FFB703"/>
</linearGradient>
<linearGradient id="paint3_linear_249_605" x1="33.4738" y1="38.5693" x2="33.4738" y2="69.2248" gradientUnits="userSpaceOnUse">
<stop stop-color="#FE7F30"/>
<stop offset="1" stop-color="#FFB703"/>
</linearGradient>
<linearGradient id="paint4_linear_249_605" x1="31.2198" y1="23.1562" x2="31.2198" y2="34.304" gradientUnits="userSpaceOnUse">
<stop stop-color="#FE7F30"/>
<stop offset="1" stop-color="#FFB703"/>
</linearGradient>
</defs>
</svg>
